<?xml version="1.0" standalone="no"?>
<!DOCTYPE svg PUBLIC "-//W3C//DTD SVG 1.1//EN" "http://www.w3.org/Graphics/SVG/1.1/DTD/svg11.dtd" >
<svg xmlns="http://www.w3.org/2000/svg">
<metadata>
This is a custom SVG webfont generated by Font Squirrel.
Designer    : junkohanhero
</metadata>
<defs>
<font id="webfontVvRU3foq" horiz-adv-x="1326" >
<font-face units-per-em="2048" ascent="1638" descent="-410" />
<missing-glyph horiz-adv-x="500" />
<glyph unicode="!" horiz-adv-x="667" d="M562 1565l30 -54l-82 -739q-2 -35 -156 -224l-105 15l-41 2l-10 11l-32 -10q-72 28 -67 139h10l-10 11l7 417l5 136q35 238 253 293zM233 1421l-2 -31l11 -1q240 -9 244 106l-9 10l-10 1l-74 -8v11q-158 -33 -160 -88zM492 1379q-28 2 -110 -665h10q56 -2 89 393h11 l-10 11v10l11 11l-10 11l30 218l-10 11h-11zM174 1267l-21 -271l13 -169l-10 1l10 -11l-5 -125q-3 -73 70 -76l63 -3q31 -1 48 166l-9 31l83 489l-9 32h-21q-209 9 -212 -54v-10zM257 500l178 -7l40 -44l-7 -178q-33 -229 -155 -223l-12 -10h-10l-10 11h-11l-10 -9h-11 q-156 17 -154 59l12 31l-11 10v10l12 11l-14 178q60 165 163 161zM191 387l61 -23q103 24 106 48l1 11l-20 21l-42 2q-105 -3 -106 -59zM398 358l-12 -42l10 -10v-10l-12 -31l8 -64l22 20l1 52l-8 43l12 31l-10 11h-11zM154 264q-7 -158 77 -160l31 -2q63 -3 66 81l4 83 l-8 53l-43 2q-125 5 -127 -57z" />
<glyph unicode="$" horiz-adv-x="1079" d="M562 1605h98q41 0 49 -195q185 -19 185 -68l10 -39q-29 -198 -107 -293l-30 -28q225 -118 225 -332l9 -49l-9 -39v-29l19 -30q-62 -65 -146 -214q-71 -75 -243 -107q-20 0 -79 -137l-49 -19q-146 12 -146 68l10 107q-29 30 -215 88l-19 30v97q0 162 127 243l117 -19 l10 10v9q-283 115 -283 254l-10 69v9q0 287 302 449q62 0 107 136q36 29 68 29zM494 1449l10 -9h20q0 49 19 49h10l20 -20l-11 -10v-10h11l49 88l-40 20q-61 0 -88 -108zM631 1440v-69h10v69h-10zM485 1361v-88l-20 -28l-68 9q-225 0 -263 -244v-28q0 -196 224 -263 q78 -11 78 -79l-10 -39l10 -39l-10 -10l10 -9v-30q0 -41 -39 -68l-214 20l-10 -59q0 -107 165 -107q79 -12 79 -78l-11 -127l59 -19h10q22 0 39 68l-10 49q0 58 156 58q195 64 195 195l10 58q-8 128 -98 235q-82 62 -214 97l-10 78q19 166 59 166l136 -29l29 107 q-12 58 -165 58l-29 30l9 97v10q-20 39 -58 39q-39 -15 -39 -30zM241 1273v-9h19q36 29 166 39l10 30l-10 48h-29q-65 0 -156 -108zM660 1254l78 -19q68 0 78 107l-107 19q-52 0 -59 -107h10zM816 1226v-49h10l19 68h-9zM406 1098h11l38 -39v-77q-9 -137 -38 -137h-11 q-115 56 -135 117v29q0 88 135 107zM329 991q25 -63 49 -68q19 0 28 87l-9 30h-29q-21 -4 -39 -49zM622 864q211 -87 282 -243q0 -59 20 -59l9 10v29q0 238 -117 293l-117 58q-47 0 -77 -88zM592 650q156 -22 156 -156q0 -52 -88 -117q-117 12 -117 39v29q13 205 49 205z M211 523l30 -20h68l49 -9l20 29v39q-10 39 -107 39q-40 0 -60 -78zM611 445l30 -19q49 6 49 58h9l-9 29h-30q-23 -5 -49 -68z" />
<glyph unicode="(" horiz-adv-x="707" d="M488 1558q114 0 144 -77q0 -31 -122 -222q-100 -178 -100 -443v-66l-10 -11q0 -154 121 -432v-12q0 -188 -166 -255h-22q-244 288 -244 654l11 45l-11 44q47 417 222 664q124 111 177 111zM377 1414l23 -21h21q59 27 89 88v11h-33q-98 -60 -100 -78zM145 838l11 -78v-165 l10 -78h-10q104 -343 188 -399h44l12 44q-156 328 -156 621q0 254 133 531l-33 34v11q-103 0 -188 -521h-11zM300 739q0 -203 121 -510h23l11 55q-111 289 -111 421l11 122l-11 11v12q12 230 133 476h-12q-165 -201 -165 -587z" />
<glyph unicode=")" horiz-adv-x="646" d="M335 1559q110 6 215 -380l1 -22l-4 -131l15 -76q14 -274 -140 -660q-118 -238 -226 -262q-102 29 -123 70l-1 11l97 234q64 229 83 515l-15 65l-2 43l10 12q-30 172 -92 322l-2 21q50 231 184 238zM313 1363q119 -217 129 -408q-1 -399 -48 -547q46 3 93 321l19 262 l-12 11l-1 11l2 184q-97 234 -133 254q-27 0 -49 -88zM228 1304l1 -11q67 -243 76 -421q-7 -281 -90 -570l-78 -179l34 -30v-11q86 4 192 499l15 360l-1 22q-38 312 -116 342z" />
<glyph unicode="," horiz-adv-x="622" d="M215 717l159 -11h74q58 0 85 -53v-32q0 -472 -212 -572h-21q-58 0 -85 42l10 127h-10q-138 0 -138 96v212q0 53 138 191zM162 569h106l96 10l31 -10q43 47 43 74l-11 10h-159q-78 0 -106 -84zM459 526v-85h10l11 53v32h-21zM141 484v-139q0 -63 105 -63q32 0 54 -42 l-11 -127h11q95 34 95 371l-10 32h-213z" />
<glyph unicode="-" d="M1073 591q-16 -94 -962 -5q-18 3 -39 216l5 31l25 17q97 174 382 129q507 24 644 3q81 -13 93 -225q-6 -35 -148 -166zM1155 757q13 74 -21 130q-23 3 -92 -91l9 -12l-2 -10l-12 -9l25 -109q22 -4 93 101zM1061 909l4 20l-22 3q-129 21 -559 -17q-279 30 -292 -48l-2 -10 l361 6l11 -2l9 -12q469 -15 490 60zM999 676q14 80 -35 111q-493 26 -830 -5l-2 -10l13 -118l95 -15q142 -23 432 -26l11 -2l9 -12q111 25 299 26z" />
<glyph unicode="&#xad;" d="M1073 591q-16 -94 -962 -5q-18 3 -39 216l5 31l25 17q97 174 382 129q507 24 644 3q81 -13 93 -225q-6 -35 -148 -166zM1155 757q13 74 -21 130q-23 3 -92 -91l9 -12l-2 -10l-12 -9l25 -109q22 -4 93 101zM1061 909l4 20l-22 3q-129 21 -559 -17q-279 30 -292 -48l-2 -10 l361 6l11 -2l9 -12q469 -15 490 60zM999 676q14 80 -35 111q-493 26 -830 -5l-2 -10l13 -118l95 -15q142 -23 432 -26l11 -2l9 -12q111 25 299 26z" />
<glyph unicode="." horiz-adv-x="614" d="M483 783q52 -46 56 -93l1 -12l-7 -50l13 -12q14 -179 -119 -368q-75 -31 -231 -44q-98 -8 -113 189l-10 110q79 242 189 251l99 8zM188 599l1 -12l87 -5l62 6q70 48 64 115l-85 -8q-100 -8 -129 -96zM449 596l9 -110l12 1l4 86l-1 26zM160 511l8 -99l17 -73l-8 -49 l38 -23l87 7q72 6 87 132l-12 11l-1 12l6 75l-40 34l-61 -5z" />
<glyph unicode="/" horiz-adv-x="827" d="M590 1625q133 10 139 -79l7 -100l12 -10l-206 -683q-31 -20 -90 -295q-101 -168 -161 -402l-43 -14q-157 10 -163 100l-4 44q-19 271 289 934q160 501 220 505zM593 1436l12 -11l23 -20l1 -11l41 37l-7 99l-23 20h-12q-28 -2 -35 -114zM175 126l2 -22l34 -9q50 4 221 472 l110 331l114 431l-12 10l-23 -1q-81 -6 -147 -266q-36 -66 -127 -410q-127 -319 -172 -536zM480 1294l-15 -90q24 2 37 92zM132 256l11 1l205 549l70 273q-45 -29 -76 -184q-206 -466 -210 -639z" />
<glyph unicode="0" horiz-adv-x="1251" d="M604 1529q429 0 497 -165q35 -69 73 -322l-11 -268l-10 -32l10 -10v-11q0 -296 -280 -590q-167 -85 -320 -93q-280 73 -280 134q-197 208 -197 466v136q0 619 404 745zM283 1312h21q158 52 259 52q341 0 435 -187l62 -248l-21 -435h11q61 58 61 269v186l11 11l-11 10v42 q-26 425 -207 425l-186 41h-114q-181 0 -321 -156v-10zM148 805v-188q0 -301 249 -465l166 -52h41q209 0 311 145l-32 41q104 73 104 218h11l-11 31l11 218v31l10 10l-10 11v40l10 42q-57 373 -197 373l-217 52h-83q-236 0 -321 -197q-42 -176 -42 -310zM573 1105 q186 0 186 -404q0 -289 -83 -332q-41 -41 -113 -41q-146 57 -146 228v31q0 486 104 486q0 19 52 32zM615 1022v-10l-11 -146v-259q13 -103 41 -103h42l20 145q0 373 -92 373zM469 577q24 -197 115 -197h31l20 20v10q-93 62 -93 291v104l10 165l-10 31h-11q-45 0 -62 -424z " />
<glyph unicode="1" horiz-adv-x="763" d="M632 1512l38 -49v-100l12 -148l-25 -310l13 -37q0 -669 -211 -805l-248 -50q-25 65 -25 260v12l-12 50l25 260l-13 174h13l-13 12l25 186l-12 87l12 12v13q0 33 -136 61l-12 13v62q60 235 185 235q227 62 384 62zM434 1413l-13 13h-11q-224 -43 -224 -99l37 -13 q310 44 310 99v13l-37 11zM571 1327l-13 -63v-99l-37 -843h25q41 0 62 967l-13 38h-24zM162 1215q0 -25 99 -37l24 -50l-24 -496v-24l12 -75l-25 -173l13 -124l-13 -50l25 -86h49q137 0 137 136v236l25 495v297l-12 13v12q-153 -12 -310 -62v-12z" />
<glyph unicode="2" horiz-adv-x="1042" d="M519 1532q316 -37 316 -315q0 -265 -121 -546l11 -12h13l158 36q35 -26 48 -218q-77 -388 -121 -388l-49 11l-498 -84h-60q-31 0 -61 291q94 276 243 546v121l-37 37l-157 -73h-13q-48 0 -84 255v24q33 267 158 267zM204 1302v-12h24l170 48h60q280 -62 280 -279l24 24 v171q0 121 -182 193q-376 0 -376 -145zM180 1169v-37q0 -89 36 -97l145 37h13q94 0 145 -171q0 -209 -279 -582l-12 -36q7 -207 61 -207l12 13h12l12 -13h12q27 24 352 61q97 38 97 61v24q0 88 -61 134l-85 -13h-108l-25 24q182 433 182 534q0 364 -194 364l-73 13 q-242 -54 -242 -109zM604 441v-13l25 -24q157 0 157 109v36l-36 37h-12q-76 0 -134 -145zM847 489l-12 -61v-61q26 0 36 110l-12 12h-12z" />
<glyph unicode="3" horiz-adv-x="981" d="M302 1509q451 0 484 -154q24 0 43 -99q0 -119 -76 -352q153 -106 153 -264q-35 -239 -285 -538q-195 -143 -275 -143q-41 35 -110 274q54 243 153 243l12 10v11l-22 22l-77 -10v10q-59 -22 -154 -22l-33 45v220q0 153 143 208l55 -11q88 7 88 33q0 40 -220 66l-33 88 q0 228 99 297q0 34 55 66zM269 1343l11 -10l11 10h65q385 -61 385 -175h22v88q0 138 -197 187l-11 -12h-12l-98 23l-11 -11l-55 11q-110 -29 -110 -111zM225 1223v-88q0 -33 197 -66q66 -66 66 -154q0 -143 -296 -153l-11 -56v-121l22 -21l165 10q110 0 154 -77v-99 q-57 -165 -209 -165v-21q42 -187 76 -187q185 65 309 274q32 85 32 154v11q0 167 -121 209q-32 0 -54 44v12q153 194 153 318q0 219 -286 242h-109q-88 0 -88 -66zM225 860v-33h33l65 -11q78 27 78 77l-12 11h-10q-154 -11 -154 -44zM642 706q154 -71 154 -187h11 q33 73 33 154v11q-21 154 -110 154q-43 0 -88 -132zM335 322v-23h44q76 36 76 99l-21 22q-99 -33 -99 -98z" />
<glyph unicode="4" horiz-adv-x="1109" d="M535 1560q329 -61 329 -188v-24l-12 -153l12 -35l-12 -36l12 -153q165 -11 165 -47v-11l12 -165q0 -271 -153 -271q-59 -9 -59 -35v-141l-12 -106l12 -47q0 -130 -165 -130l-118 -12q-54 23 -59 47l12 412l-59 24l-11 -12h-12l-106 12l-130 -12q-82 22 -82 188v59 q0 296 412 836h24zM558 1489l-23 -35v-59q0 -23 223 -82l12 12v70q0 45 -212 94zM429 1348q-212 -323 -212 -400q235 356 235 388v12h-23zM170 689q0 -141 47 -141l164 -12l154 12l35 -36l-12 -176v-236l12 -11v-12l59 12h11l12 -12q94 12 94 35v94l12 165l-12 12v12 q0 141 118 141q59 0 59 35v94q0 36 -118 48l-35 105l12 71v12l-12 165l12 117q0 76 -224 118h-12q-161 -154 -318 -494q-29 0 -58 -118zM570 1101h12l35 -35v-59l12 -283q-23 -54 -47 -59h-130q-94 0 -94 48q196 388 212 388zM841 866q32 -102 58 -106l24 106v23l-35 12z M523 877l-59 -141h23v-12q71 24 71 71q-12 82 -35 82z" />
<glyph unicode="5" horiz-adv-x="906" d="M320 1518h12l307 -48l47 13q94 -31 94 -95q0 -129 -94 -319v-11q153 -90 153 -355q0 -193 -224 -542q-181 -189 -307 -189h-47q-36 0 -95 271v35q0 156 189 272l12 71q0 68 -271 94l-24 36l12 58v237l24 94v130q71 248 212 248zM225 1341v-12l60 12q30 -32 153 -48l12 13 l82 -13h60q70 57 70 119l-342 47q-95 -39 -95 -118zM650 1187l12 -11h12l35 117h-11q-24 0 -48 -106zM155 1093l11 -12l-11 -142v-164q307 -30 307 -260q-37 -248 -225 -248l-12 -36q48 -200 83 -200q366 119 366 519q-33 272 -95 272q-162 106 -271 106v94q0 83 71 83 l94 -24h71q28 0 48 106q0 71 -319 71l-48 12q-47 0 -47 -130l-12 -11zM391 1034l-12 -12v-47q343 -104 343 -319l11 -94h23l24 153l-11 36l11 35q-50 224 -165 224zM249 361v-23h12q130 23 130 117l-12 13h-12q-94 -52 -118 -107z" />
<glyph unicode="6" horiz-adv-x="1151" d="M846 1526q110 0 153 -71q0 -225 -153 -378v-20q234 -94 234 -286l11 -81q0 -265 -337 -623q-49 -41 -184 -61q-217 0 -418 285q-61 122 -61 225q0 401 153 653q86 205 367 316q43 21 235 41zM356 1241v-21q220 143 449 143l82 92l-10 10h-11q-356 -4 -510 -224zM846 1291 v-102h10q61 46 61 133v72h-10q-61 -49 -61 -103zM142 486q94 -316 184 -316q84 -92 234 -92h41q210 0 306 377l10 91q0 207 -142 266l-184 41l-184 -41l-20 21q126 255 367 255q30 48 30 153v20q0 41 -112 41v10q-238 -48 -387 -214q-143 -207 -143 -612zM499 914l10 -10 v-10l41 10q418 0 418 -326v-82q51 23 51 153v122q0 198 -276 235h-80q-82 0 -164 -92zM570 690q120 0 173 -204q-60 -225 -193 -225h-10q-164 50 -164 184v21q0 184 174 224h20zM560 546v-40q0 -72 71 -72h21q31 11 31 62v20q0 66 -82 92q-41 -10 -41 -62zM479 598l-41 -52 v-132q0 -92 122 -102h21l50 41v20q-121 0 -132 143v62z" />
<glyph unicode="7" horiz-adv-x="1131" d="M838 1553q144 -141 144 -199v-34l-100 -254h12l11 -11l11 11h121l34 -34v-11l-12 -33l12 -55v-33q-63 -332 -200 -332l-133 -11v11q-66 0 -66 -89q-205 -418 -255 -443q-270 89 -277 144l145 399l-11 11h-101q-57 0 -66 33q0 233 66 288v33h-55l-33 33v66l-22 189 q104 243 310 243q363 78 465 78zM143 1271l30 16l167 22v-11q407 29 420 133q23 0 23 44l-12 11h-11q-598 -82 -617 -215zM838 1478q-44 -82 -44 -124l-29 -18q75 -93 95 -93q19 2 67 111q-28 88 -89 124zM129 1188v-12q0 -151 55 -166l344 56h11l22 -23v-11 q-59 -232 -144 -232l-199 -11h-11q-34 -11 -34 -67v-11l11 -55h101l77 11q33 -41 33 -77q-77 -84 -188 -399q119 -89 199 -89q122 252 211 499q32 33 277 44l11 11v155h-67l-133 -11l-22 22l111 244l33 110q0 80 -155 111q-543 -48 -543 -99zM771 878l12 -11q166 26 150 25 l39 114l-101 -29q-100 -15 -100 -99zM229 867l11 -12h111q110 0 110 89v11h-66q-166 0 -166 -88zM993 900l-22 -100h22l22 89l2 69z" />
<glyph unicode="8" horiz-adv-x="1056" d="M559 1513q320 -78 299 -350l-48 -217q-3 -26 116 -125q33 -72 47 -205q-38 -493 -351 -594l-139 -21q-284 22 -379 272l-16 76l1 9q11 135 116 403l1 10q-121 75 -107 251l-10 11q75 363 123 359q115 139 347 121zM200 1246l11 -1q138 108 240 108q253 -20 353 -207 l15 52q-53 235 -213 248l-41 14q-346 27 -365 -214zM151 1018q-14 -178 118 -242q42 -8 40 -34l-2 -31q-161 -171 -177 -366l-1 -10q32 -150 141 -222q30 -24 164 -56q296 -22 418 221l16 62l-10 11l1 11l18 93q7 100 -211 270l2 31q98 180 108 298q-14 93 -91 176 q-41 55 -238 71q-182 14 -289 -199zM456 1142q111 -58 119 -94l-6 -74q-46 -133 -136 -126q-126 10 -117 115l4 52q6 86 136 127zM372 1011l-1 -10q1 -85 67 -90q75 15 80 78l-102 50l-10 1zM781 852l-47 -69l-3 -32q55 -45 174 -203l14 52q-16 243 -138 252zM538 577 q108 -104 102 -177q-36 -166 -149 -157l-21 2q-126 10 -111 198q68 142 179 134zM501 506l7 -54l20 -1l35 28v11l-29 34zM411 439l-2 -31q-7 -83 65 -122q107 23 112 97l-10 1l-10 11l-11 -10l-21 2q-94 7 -89 70l-11 1z" />
<glyph unicode="9" horiz-adv-x="1124" d="M541 1532q351 0 467 -392l11 -325v-175q-64 -434 -120 -434q0 -59 -326 -228h-32l-87 271l10 55v76q109 74 109 98l-11 11h-10l-66 -11q-179 44 -260 151q-131 191 -131 305l11 10v11l-11 11q30 479 185 479q112 87 261 87zM182 1217h11q138 138 184 151l305 -43 q261 -190 261 -293h11v32q0 313 -294 402l-141 11q-246 0 -337 -228v-32zM160 999v-98q0 -96 131 -272q40 -41 206 -108l174 43q98 -22 98 -54v-21q-35 -33 -98 -175l-152 -108q35 -163 76 -163q293 119 293 261q37 34 87 347l-65 370q-63 159 -315 271l-43 11 q-359 -25 -359 -195q-33 -56 -33 -109zM508 1064h11q184 -46 184 -163v-65q0 -93 -141 -119q-106 0 -196 152v32q22 163 142 163zM475 977q23 -65 87 -65l33 11v11q0 76 -76 76h-22q-22 0 -22 -33zM421 923v-33q0 -70 120 -130q109 0 109 87v22h-22v11l-55 -22 q-80 0 -141 65h-11zM508 325l33 -43h21q98 70 98 163v22h-10z" />
<glyph unicode=":" horiz-adv-x="598" d="M73 1208l76 128l125 29l172 25q61 -17 74 -106l4 -24q25 -181 -101 -366l-124 -29l-49 5l-45 -19q-114 -15 -124 52v84q-29 266 -8 221zM292 1310l-91 -13l-49 -66l3 -23l184 26q54 32 45 89l-12 10zM431 1247l-12 -83l17 -137q42 27 30 213l-10 49zM127 1075l13 -10 l-3 -59l12 -81l25 -20q195 37 193 52q15 55 1 152l-5 34q-16 34 -73 26l-70 -11q-89 -12 -93 -83zM189 720zM473 782q54 -42 59 -86l2 -10l-5 -48l13 -10q25 -170 -90 -354q-69 -32 -216 -54q-91 -13 -118 172l-15 103q62 231 166 246l91 13zM206 591l3 -11h82l58 9 q62 49 54 113l-81 -12q-94 -13 -116 -99zM451 603l16 -104l12 2v83l-4 23zM184 505l13 -91l21 -67l-4 -48l37 -18l81 12q67 9 75 128l-12 10l-2 11l1 70l-38 30l-58 -8z" />
<glyph unicode=";" horiz-adv-x="659" d="M287 1273l34 -11l11 11h12l11 -11h11l56 11q113 0 113 -102q0 -45 -5.5 -226t-5.5 -22h-11q-89 -148 -169 -148h-34v-22h180q62 0 91 -57v-125l-12 -135l23 -23v-11q-49 -26 -68 -181q-127 -169 -192 -169q-62 0 -91 45l12 135h-12q-147 0 -147 101v204q0 101 147 216v22 q-135 6 -135 46v203l-23 114q127 135 204 135zM185 1149v-11h79l68 -12q43 0 90 68l-33 22h-136zM411 1069l11 -34l-11 -11v-12l11 -11v-11l-11 -90h22q30 0 46 90v125l-23 23zM174 1058v-158q0 -79 113 -79h23q35 0 56 136l-11 44l11 11q0 69 -136 69h-34zM196 605h102 l101 12l34 -12q46 51 46 80l-12 11h-169q-102 0 -102 -91zM501 560v-90h12l11 57v33h-23zM162 516v-149q0 -67 114 -67q33 0 56 -45l-11 -136h11q101 43 101 385v12l-34 34h-203z" />
<glyph unicode="&#x37e;" horiz-adv-x="659" d="M287 1273l34 -11l11 11h12l11 -11h11l56 11q113 0 113 -102q0 -45 -5.5 -226t-5.5 -22h-11q-89 -148 -169 -148h-34v-22h180q62 0 91 -57v-125l-12 -135l23 -23v-11q-49 -26 -68 -181q-127 -169 -192 -169q-62 0 -91 45l12 135h-12q-147 0 -147 101v204q0 101 147 216v22 q-135 6 -135 46v203l-23 114q127 135 204 135zM185 1149v-11h79l68 -12q43 0 90 68l-33 22h-136zM411 1069l11 -34l-11 -11v-12l11 -11v-11l-11 -90h22q30 0 46 90v125l-23 23zM174 1058v-158q0 -79 113 -79h23q35 0 56 136l-11 44l11 11q0 69 -136 69h-34zM196 605h102 l101 12l34 -12q46 51 46 80l-12 11h-169q-102 0 -102 -91zM501 560v-90h12l11 57v33h-23zM162 516v-149q0 -67 114 -67q33 0 56 -45l-11 -136h11q101 43 101 385v12l-34 34h-203z" />
<glyph unicode="?" horiz-adv-x="899" d="M519 1576q297 -90 293 -304l-1 -18l-9 -28l8 -9h10q-5 -274 -270 -517q-3 -176 -50 -175l-74 -9q-140 3 -139 77l1 19q6 362 139 472l38 56l-9 28h-37q-62 -32 -171 -146h-9l-155 161q63 307 154 305q104 91 281 88zM170 1303l28 -1q81 130 188 127l65 -1 q288 -67 286 -192l9 -9h9l9 9l1 10q3 225 -293 284q-216 4 -301 -208zM168 1173q-1 -21 63 -76q150 127 189 127h9q117 -25 137 -143v-9q-1 -83 -152 -201q-68 -98 -70 -241q-1 -57 54 -58h10q84 -1 85 92q2 76 181 230q58 113 59 185l1 37q-42 224 -163 227q0 15 -111 38 l-9 -8h-10l-9 9q-159 3 -264 -209zM492 1092q-105 -114 -106 -166h10q113 87 115 148zM444 497q94 -2 202 -143l-47 -45l-1 -38q-28 -260 -172 -257h-19q-107 2 -137 161l1 46l10 37l-9 10v9q38 213 144 212zM348 351v-10l74 -1l130 -40l9 9l1 28q-8 112 -110 114 q-102 -17 -104 -100zM326 192v-19q-1 -53 63 -112l56 -1q84 38 86 129q1 56 -63 103l-47 1q-93 -23 -95 -101z" />
<glyph unicode="@" horiz-adv-x="1640" d="M861 1653h23q503 -159 503 -263q172 -134 172 -366q0 -197 -149 -401v-34q57 -59 57 -103q-103 -265 -297 -343q-70 -60 -344 -103v11l-11 -11q-365 0 -652 344q-69 175 -69 262v161q0 251 241 617q150 229 526 229zM323 1298h12q236 184 411 184q687 -117 687 -607 l-23 -115h23l57 230q0 264 -115 343q-91 144 -400 240l-149 23q-338 0 -503 -298zM151 566q72 -252 287 -366q210 -91 308 -91h104q151 0 400 160l11 34l-35 23q-289 -115 -388 -115h-69q-291 0 -481 298q-31 63 -45 275q127 549 537 549q258 0 470 -343l11 -138v-11 q-49 -263 -195 -263h-22q-183 0 -183 320v35l11 137l-34 23l-92 -35l-148 23q-115 0 -173 -263q0 -297 207 -297l171 45q136 -91 241 -91q217 0 308 343l12 91v12q0 406 -561 492h-57q-334 0 -560 -435q-35 -119 -35 -412zM620 1150q12 -34 69 -34h23q91 11 91 91l-45 23 q-138 -42 -138 -80zM872 1161l12 -11q56 19 56 69h-22q-24 -6 -46 -58zM369 909v-11l80 172l114 126h-12q-182 -122 -182 -287zM1044 1150l-23 -264l11 -79l-11 -11v-12q19 -103 79 -103q70 0 115 205q-81 264 -149 264h-22zM952 1127l-34 -81l11 -11v-34l-11 -103l11 -12 v-11l-11 -11v-12q19 -182 57 -182h23l-35 126v205l12 115l-12 11h-11zM655 990h45q69 -22 69 -126q-31 -229 -149 -229q-80 0 -91 125q0 136 126 230zM620 864l12 -34l-34 -34v-70l22 -22h35q36 0 57 126q-12 91 -35 91h-11zM300 704q0 -358 446 -435l34 11l70 -11 q423 94 423 217l-35 11q-172 -137 -435 -137q-188 0 -378 172q-113 136 -113 172h-12zM1284 395v-24l34 -34q69 118 69 160v24h-23q-80 -69 -80 -126zM677 463v-23l126 -22l58 11v-11l45 11v23l-126 57z" />
<glyph unicode="A" horiz-adv-x="1243" d="M584 1500q345 -17 405 -111q0 -85 123 -467l-12 -49q17 -2 86 -357l12 -49q-95 -344 -270 -344q-116 -49 -172 -49q-21 0 -74 184h-98q-209 -258 -246 -258q-183 78 -295 160l283 1143q193 197 258 197zM448 1327l136 -36l37 12l98 -25q91 0 135 123q0 23 -283 37 q-117 -69 -123 -111zM805 1180v-25q35 -199 148 -479l24 -123h-12l86 -258q44 0 86 147q-86 542 -209 885h-24q-99 -53 -99 -147zM117 234q0 -113 196 -160q29 0 87 233q47 25 135 25h49q185 0 185 -160l36 -25q172 29 172 62q-24 279 -172 749q-67 271 -111 271h-36 l-246 37q-87 0 -197 -627q-98 -320 -98 -405zM559 934h12q45 -15 111 -406v-36l-24 -25h-197l-25 25q70 442 123 442zM547 787l-37 -172l13 -12h12q41 30 61 97l-25 87h-24zM559 541l12 -13v-12l37 12v37h-24zM424 172h12q62 37 62 86h-37q-29 0 -37 -86z" />
<glyph unicode="B" horiz-adv-x="1143" d="M449 1526q91 13 441 -70q83 -63 102 -184l15 -103l-64 -262q117 -154 124 -202q42 -270 -234 -603q-96 -78 -206 -95l-11 -1q-483 26 -513 58l-3 21q-14 91 110 1141q-17 115 208 295zM318 1348q4 -24 181 -14l195 -34q189 -78 204 -169q7 -51 28 -48q25 44 13 192 q-77 166 -201 148q-199 53 -311 36q-33 -8 -109 -111zM277 1269q-51 -213 -104 -973q11 -74 -11 -202l10 2l427 -41q221 34 280 296l12 65l-17 39l4 42q-67 166 -103 195l-3 21q90 139 103 289l-7 51q-30 196 -276 221q-162 17 -315 -5zM483 1090l31 4q150 -15 163 -102 q0 -178 -97 -193q-134 -13 -139 21l-4 21q0 241 46 249zM504 956l4 -31l11 2q56 45 47 101l-11 9l-21 -3q-38 -23 -30 -78zM530 854l1 -10l20 4l2 -10q62 9 60 92q-57 -8 -83 -76zM847 703q78 -169 92 -259l-9 -12l2 -11l15 -29q85 132 65 262l-6 41q-8 50 -73 137l-31 -5 q-63 -76 -55 -124zM426 639l20 3q199 12 222 -145q-19 -181 -118 -196q-188 -4 -192 23q27 309 68 315zM436 431l12 -10l10 2q71 92 64 136l-5 31l-32 5q-49 -7 -49 -164zM478 363l23 -17l21 3q56 8 75 64l-5 31l-24 17l-20 -3q-59 -52 -70 -95z" />
<glyph unicode="C" horiz-adv-x="1170" d="M638 1516q156 -19 297 -128q96 -154 96 -192v-31q-43 -224 -127 -224l-192 -42q-85 138 -107 138h-10q-64 0 -64 -53q0 -348 64 -436l74 -86h10q54 228 139 309q277 -23 277 -74q0 -490 -436 -671h-21q-356 0 -448 319q-74 208 -74 394v32q0 514 340 713q65 32 182 32z M350 1303h11q140 53 212 53q153 -22 299 -128l52 -127h32l22 106q-94 245 -299 245l-95 10q-159 0 -234 -159zM170 824q20 -658 308 -724l160 -10h31q168 0 287 383v43q-21 21 -180 32q-96 -253 -138 -256h-76q-169 165 -169 405v31q0 373 212 373q35 0 150 -139 q138 19 138 54v11q-64 266 -277 266l-64 10q-344 0 -382 -436v-43zM456 793l-11 -86q39 -319 160 -362l43 32v22q-106 94 -160 277q-7 117 -32 117zM787 611v-10l74 -11h85q53 27 53 86l-64 21h-96q-52 -28 -52 -86z" />
<glyph unicode="D" horiz-adv-x="1273" d="M399 1515q116 -5 240 -45l34 14q131 -1 298 -110q212 -167 228 -497q-40 -397 -164 -550q-142 -178 -283 -217q-68 -83 -255 -92q-242 11 -398 48l49 1290q147 115 251 159zM316 1387l92 -30l55 14q127 7 286 -76q188 -132 193 -250h-10q38 -50 66 -222 q-56 -489 -122 -492l-62 -105h11q317 214 298 602q22 1 17 103q-78 357 -164 353q-91 131 -221 124q-1 20 -285 43q-156 -19 -154 -64zM161 407l12 -10l-10 -249q3 -61 240 -56q1 -22 102 -17q219 11 387 403l50 353q-81 391 -177 386q-118 119 -378 106l-125 16 q-73 -4 -69 -432zM498 1125q208 -80 217 -272q23 -451 -188 -540q1 -23 -77 -26l-34 -2q-28 -1 -36 43q65 504 52 749v10q9 35 66 38zM462 479l13 -33q107 5 98 547l-2 33l-24 22q-52 -3 -61 -364q-18 -1 -24 -205zM639 804l-9 -57l7 -146h12l2 170l-2 33h-10zM524 381 q45 17 64 60v11q-79 -4 -76 -72z" />
<glyph unicode="E" horiz-adv-x="959" d="M468 1537l56 -12h213q90 0 90 -157v-68l-56 -224q90 0 90 -180v-90l-44 -180q89 0 89 -112v-146q-73 -349 -180 -349h-124l-100 12l-113 -12h-202q-56 20 -56 337q-17 0 -22 124h10l-10 11v214l10 11l-22 113l12 101l-12 326q54 247 101 247l45 12h90q135 0 135 22z M220 1447q-44 -89 -44 -147v-22h44l462 34q44 86 44 135l-11 11h-11zM737 1278v-56h12l11 56h-23zM165 1143l11 -157l-11 -45l11 -293v-224q40 -337 67 -337h461q17 0 33 44l-11 125v56l-11 11v11l-191 -11h-45q-45 0 -45 191v34q0 28 45 33q236 0 236 34v112q0 59 -33 68 h-12l-225 -12l-22 68v135q0 45 259 67l-12 79v11l12 45q0 56 -80 56q-437 0 -437 -67v-34zM535 851l12 -11h11l34 22l44 -11q124 8 124 113v10l-11 12v12q-180 -31 -180 -57l-45 -90h11zM783 862l-12 -56v-56q27 0 34 79l-11 33h-11zM547 390l11 -11h11q225 0 225 146 l-11 11q-214 0 -214 -101q-22 0 -22 -45zM817 424l-34 -146l11 -68q26 0 56 169l-11 45h-22z" />
<glyph unicode="F" horiz-adv-x="921" d="M534 1516h264l33 -33v-77l12 -44q0 -169 -66 -242v-33q52 0 66 -89v-109q0 -177 -132 -353q-155 -43 -155 -66v-21l11 -144q-70 -275 -143 -275h-10v11l-12 -11h-11l-10 11q-44 -22 -122 -22h-88q-61 0 -77 319q7 99 22 99l-44 396l11 66v66l-11 45l11 44l-11 10v12 l11 11l-22 187q141 231 275 231zM193 1340l56 -11l297 33v-11l10 11h11l66 -11q33 0 89 88l-33 22h-232q-181 0 -253 -99l-11 -11v-11zM711 1263v-66h11q55 55 55 165l-12 11h-10q-30 0 -44 -110zM127 1208l11 -154h-11l11 -33l22 -518l-11 -11v-10l22 -89l-11 -99l33 -209 l165 11h33l33 22l-33 397q113 66 275 66l23 43q-11 209 -67 209l-198 -33q-66 0 -66 177v44q0 47 275 66q8 176 23 176q-7 44 -77 44l-78 -11l-44 11l-319 -55zM447 866h76q209 0 209 144l-10 11h-143q-93 0 -132 -155zM732 812v-45l23 -21h10l12 77v99q-31 0 -45 -110z M457 470l23 -209l21 22v176l-21 23l-12 -12h-11z" />
<glyph unicode="G" horiz-adv-x="1146" d="M678 1520h20q100 -2 100 -20l10 10h10q131 0 131 -120l-11 -40l11 -80q-137 -211 -201 -211h-90q-172 -19 -172 -202l-9 -9v-10h19q0 46 162 180q411 -75 411 -121l10 -10q0 -136 -50 -301l10 -30q-82 -342 -271 -482q0 -22 -90 -30q-222 33 -362 161q-201 233 -201 441 l-10 141q0 143 151 452q186 281 422 281zM406 1339v-20l141 41l90 -10h70q64 0 121 80v10q0 30 -111 30h-80q-93 0 -231 -131zM788 1289q7 -120 30 -120q71 96 71 130v121q-101 -77 -101 -131zM658 1309h-91q-268 0 -402 -422l10 -10v-10l-20 -90l10 -30l-10 -10v-10l20 -90 l-10 -10q0 -261 292 -473l201 -60h30q107 0 170 382h10l-10 30l31 251l-282 71h-10q-80 0 -80 -182q171 -50 171 -90q-54 -181 -91 -181q-171 64 -221 201l-30 121q0 146 80 281v10h-20v20l20 20l41 -10q54 91 80 100q50 -2 50 -20l10 10h120l21 21v141l-41 49zM597 877 l181 -60l80 11l31 -31h29q48 22 71 70v20q0 21 -61 21l-250 60q-65 0 -81 -91zM918 617l10 -31h-10l10 -10l-70 -271l10 -10v-10l-10 -40h10q74 104 121 291l-10 10v10l50 231l-10 30h-10q-46 -11 -91 -200zM396 797v-90q54 -262 151 -262l10 -10h20q20 5 40 51 q0 43 -160 141q-31 170 -51 170h-10z" />
<glyph unicode="H" horiz-adv-x="1363" d="M946 1522h201q94 0 94 -174l40 -495l-14 -120v-174q0 -205 -160 -441l-201 -27q-117 0 -147 67v106q0 255 -53 255l-67 -27l13 -13v-121q-63 -241 -160 -294h-174q-187 0 -187 80l-14 134l14 40l-27 481l13 54l-13 94q0 444 147 494q13 54 147 54l41 -14l13 14h13 q174 0 174 -201l13 -160l-13 -93l13 -14h40q10 80 27 80l-27 174q183 241 254 241zM826 1321l53 -27q242 0 242 107v13l-27 27h-175q-93 -50 -93 -120zM251 1308l174 -27l80 93v14q0 40 -134 40q-134 -34 -134 -120h14zM1161 1348l-40 -107l13 -174q-6 -201 -27 -201l14 -13 v-187l26 -227l-13 -94h13q46 0 54 321h13l-13 13v67l13 13l-13 14v26l13 14l-13 13l13 40l-13 148v13l13 14q-27 57 -27 213v67zM546 1321l-41 -147v-173l41 -41l26 121v213zM171 1054l26 -709l14 -67l-14 -67q0 -80 81 -80h134l40 40v361q0 54 254 54h53q80 0 80 -402 l67 -13h108q40 8 40 93l-14 442l14 80l-14 93l14 268q0 94 -94 94h-107q-81 0 -81 -80v-134l14 -188l-27 -53l-40 13l-214 -13l-53 53v175l-27 133h14q0 94 -188 94q-80 -22 -80 -187zM586 893v-27h93l27 27v27l-27 27h-40zM519 439l13 -13l-13 -68v-54l27 -26l26 80v94 l-26 27q-27 0 -27 -40z" />
<glyph unicode="I" horiz-adv-x="891" d="M550 1476q277 -62 277 -166q0 -179 -138 -818q0 -372 -249 -457l-28 -28h-42q-277 72 -277 97q80 1219 208 1219q202 153 249 153zM384 1296l139 -55l13 13h14l14 -13q138 66 139 96q-67 55 -167 55q-152 -67 -152 -96zM536 631l14 -14v-15l-83 -457h14q105 0 124 361 q139 537 139 706v29h-27q-103 -11 -181 -610zM329 1212q-42 -239 -97 -373l14 -14v-15q-56 -369 -56 -554v-125l152 -41h14q111 421 180 1053q-30 69 -138 69h-69z" />
<glyph unicode="J" horiz-adv-x="1311" d="M891 1528q338 0 338 -59v-161l-15 -15l15 -14q-44 -652 -176 -955q-135 -239 -426 -324h-132q-310 0 -456 411q116 324 367 324q40 -12 117 -162l15 -15h45q48 0 58 191l-14 15v15q55 632 161 632q0 43 103 117zM818 1337q0 -29 73 -29v-15q192 0 192 89l14 43l-44 29 h-88q-87 0 -147 -117zM1112 1279q-33 -514 -74 -721v-14h15q53 143 88 617l15 14l-15 59v45h-29zM745 1204l14 -43q-62 -764 -162 -764q-95 -59 -147 -59q-66 0 -176 103h-29q-95 -39 -103 -74q92 -293 338 -293l58 -15q190 0 338 250q133 229 133 807l14 59q-19 74 -205 74 zM348 499q47 -102 102 -102q92 29 103 73l-147 118h-14q-29 0 -44 -89zM186 529l14 -15h15l44 44v15h-29z" />
<glyph unicode="K" horiz-adv-x="1318" d="M371 1511q329 0 329 -102v-177h26q150 203 240 203q212 -111 229 -152v-13q0 -40 -178 -367q241 -262 241 -292v-25q-77 -179 -355 -469h-38l-151 165q-159 -254 -203 -254l-330 -50l-76 734l12 242v63l13 12l-13 13l13 190v51q196 228 241 228zM270 1308l114 -13h13 q145 0 165 128h-14l-139 12q-152 -55 -152 -127h13zM840 1245l140 -76q46 0 114 88v26q0 22 -128 75q-126 -45 -126 -113zM511 966l12 -12h25q77 127 77 189v152l-26 26q-67 0 -88 -355zM227 1240l-38 -278l13 -64l-13 -13v-12l13 -13l-26 -178l77 -595l12 -13h13 q97 0 215 38v13l-12 405l38 26h12l342 -329q89 0 190 202l-304 291l191 380v14l-140 75q-69 -12 -177 -241l-140 -164h-12l-39 25l13 64l-13 114l13 164v51q0 38 -228 38zM865 725q21 -66 229 -228h12l63 76v38q-148 190 -215 190q-89 0 -89 -76zM562 408v-126l-14 -63 l14 -14h37l26 115v37l-51 51h-12z" />
<glyph unicode="L" horiz-adv-x="1005" d="M523 1543q168 -8 162 -137l5 -170l-14 -11l-1 -13l12 -15l-53 -294l-7 -155l-14 -12q-2 -52 166 -60l104 21q58 -27 62 -55l-3 -77q-19 -381 -232 -519l-170 -6q-464 23 -460 101l1 26q14 115 31 114l-11 14l8 180l13 14l-11 12l1 13q65 903 133 900q25 -2 28 50l-24 28 l14 12l12 -1l38 -15q3 52 210 55zM294 1360q-1 -26 141 -46q69 -3 134 110v13l-24 26l-155 8q-22 0 -96 -111zM590 1319l-15 -38l-69 -618l26 -1l79 553l4 77zM231 1130l-13 -271l-39 -270l9 -78l-19 -128l9 -105l-19 -103q32 -40 308 -53l155 -8q78 -4 84 126l21 167 l-12 14l-259 12q-30 2 -35 66q35 556 66 554l-14 13l1 13l14 13l-12 13l5 103l13 13l1 13l-37 27l-181 9q-39 2 -46 -140zM538 507l12 -13l103 -6q106 -5 147 83l1 27l-141 32q-117 -21 -122 -123zM835 505l-32 -115l-3 -77l-13 -13l-1 -13l11 -12l13 -1l62 191l-11 38z" />
<glyph unicode="M" horiz-adv-x="1607" d="M1038 1567q476 0 476 -109l13 -244l-13 -122l13 -488q0 -229 -176 -515q-40 -24 -326 -54l-27 122h-27q0 -45 -109 -136h-27q-229 0 -229 150l-150 -163h-54l-68 13l-81 -13h-123q-40 8 -40 109v230l13 854q0 130 218 311q419 -36 419 -135l42 -81h40q103 271 216 271z M931 1296q54 -3 54 -27l40 13l258 -13q95 94 95 203h-325q-95 0 -122 -149v-27zM253 1336v-40l53 -27h204q31 0 68 121q-52 42 -122 42h-122q-25 0 -81 -96zM606 1241v-81l80 -244h14q27 0 68 204q-71 186 -109 216q-53 -22 -53 -95zM1351 1106l27 -54l-14 -163l14 -325 l-27 -82l13 -13v-14l-27 -108l14 -14h27q40 67 67 854l-13 41l13 54l-13 54q-54 0 -81 -230zM157 224l15 -121h13l190 -14l40 14v176l-13 434l13 14h27q89 -74 244 -583q66 -55 109 -55q66 0 163 583l13 41l14 14q0 40 26 40h14l41 -40l14 -556q13 -54 54 -54q114 0 162 54 l-13 53l13 556v353q0 81 -135 81l-257 14q-55 0 -177 -475l-14 -13h-13l-163 434l-298 67q-67 0 -67 -420zM470 455l27 -54l-14 -95l14 -108h13q54 21 54 95l-54 189h-13zM971 360l-13 -108h27l13 68v40h-27z" />
<glyph unicode="N" horiz-adv-x="1303" d="M531 1518q232 0 232 -137l14 -14h13l165 137q273 -18 273 -96q0 -1095 -95 -1095q-103 -287 -151 -287h-274q-103 0 -137 192h-13l-137 -192q-342 31 -342 96v164q110 1054 164 1054q168 178 288 178zM352 1340q0 -23 83 -41l55 14l41 -14l96 123l-83 27h-27 q-87 0 -165 -109zM859 1313l123 -41q79 0 123 123l-136 27q-110 -32 -110 -109zM681 1367q-54 -57 -54 -109l81 -315h28v178l14 123q-34 123 -69 123zM1119 1313q-25 -26 -41 -315l14 -82l-28 -123v-109q0 -161 -27 -220l13 -13v-14l-13 -110l13 -14h14q50 0 82 986l-13 14 h-14zM189 519l13 -14v-13q-41 -204 -41 -343h14l164 -40h13q61 0 96 546l14 56l13 13h29q68 0 204 -602q82 -22 82 -41q179 0 179 109v83l-14 68q54 447 54 712v54q0 123 -177 123l-28 -27l14 -14v-328l-14 -14l14 -40q-17 -138 -55 -138q-38 33 -219 548l-205 41 q-91 0 -123 -603zM504 519l-29 -246l15 -14h14q54 82 54 123l-27 137h-27z" />
<glyph unicode="O" horiz-adv-x="1258" d="M598 1524q394 0 563 -391l23 -229l-12 -47v-80l-11 -12l11 -12v-10q-108 -472 -195 -472q-152 -230 -299 -230l-12 12l-11 -12h-149q-313 0 -414 518h-12v22h12l-12 138v58l35 253v11l-23 35v11q54 36 161 265q120 172 345 172zM345 1352l184 34q293 -55 390 -184 q127 -137 127 -414v-126l-11 -195q80 101 80 413v58l12 11q0 245 -162 380q-89 138 -367 138q-167 0 -253 -115zM206 1076l12 -70q-81 0 -81 -263q0 -361 196 -598q64 -58 265 -58q367 57 367 368l35 288q-42 346 -115 425q-131 161 -414 161q-129 0 -265 -253zM540 1087h34 q127 0 173 -230l-12 -11l12 -58v-276q-37 -206 -149 -206h-12q-141 0 -196 218v333q40 230 150 230zM574 812v-24l12 -45l-12 -47l12 -57h-12q31 -161 92 -161q20 25 35 161q-27 379 -92 379q-35 0 -35 -206zM437 834l11 -57v-218q23 -196 161 -196l34 35q-114 117 -114 241 l-12 184v161h-23q-31 0 -57 -150z" />
<glyph unicode="P" horiz-adv-x="1054" d="M408 1508q489 -77 489 -173q65 -55 65 -196l32 -65q0 -205 -249 -575q-163 -94 -163 -119q0 -149 -196 -347l-86 -11q-184 19 -184 87l-22 185l10 54l12 618q41 423 119 423q49 119 173 119zM267 1345v-10q510 -58 510 -153q98 -115 98 -260v-10h10q33 0 44 151 q0 291 -261 347l-162 33l-11 -11l-54 11h-43q-58 0 -131 -98zM170 933l11 -43l-11 -33l11 -43l-22 -478l11 -32l-11 -65v-44q0 -108 141 -108h11q75 0 75 336q234 51 316 120q129 141 129 390q-68 261 -141 261q0 46 -411 75q-88 0 -109 -336zM485 1074q173 0 173 -217v-21 q-23 -218 -195 -218h-43l-22 22q29 395 54 434h33zM495 1019l-22 -151v-65h22q18 75 32 75l-10 12v108zM506 695h21l44 42v34h-10q-55 -34 -55 -76zM452 380l-22 -163h33l43 131l-11 32h-43z" />
<glyph unicode="Q" horiz-adv-x="1356" d="M599 1498h54q263 0 466 -282q43 -44 65 -195h-11l11 -11v-54l-11 -11l11 -33q0 -223 -32 -356q151 -105 151 -153q-133 -362 -227 -389q-165 97 -195 97q-126 -97 -195 -97l-12 10l-97 -21q-288 0 -368 205q-89 124 -130 434l11 11v10l-11 33h11l-11 11v32l32 271l-21 65 q54 0 140 217q114 206 369 206zM350 1335l163 33q298 -52 400 -173q141 -156 141 -434v-227q61 0 76 390q0 259 -185 411q-56 97 -346 109q-161 0 -249 -109zM209 1053l11 -65q-76 0 -76 -237v-66q0 -365 206 -574q53 -54 249 -54q122 0 238 108q0 25 54 33q91 -95 141 -108 q31 0 108 173q-4 35 -195 119v11q55 73 55 358l-11 42h11l-22 44l11 11q-33 354 -325 444l-206 10q-114 0 -249 -249zM545 1064h32q129 0 173 -227v-11l-10 -11l22 -98l-12 -10v-11l12 -33h-12l12 -10q0 -380 -163 -380q-151 0 -206 228v336q44 227 152 227zM577 783l11 -76 l-11 -11v-11q12 -227 97 -227l34 162l-22 109l10 32l-10 32h10q-45 195 -75 195h-11q-33 0 -33 -205zM447 751v-44q0 -368 141 -368q54 0 54 43q-97 104 -97 140q-22 92 -22 239v184l-22 22q-47 0 -54 -216zM1086 479l-43 -86q65 -54 141 -54l32 43v43q0 33 -97 54h-33z" />
<glyph unicode="R" horiz-adv-x="1184" d="M652 1505q240 0 407 -247l50 -136v-74q0 -115 -135 -346l-13 -61v-38l74 -234q-111 -251 -296 -309l-111 -25l-63 99h-11q-131 -160 -162 -160q-308 0 -308 61v173l-12 62l73 988q53 179 174 247h333zM257 1358v-26l86 -12h25l50 12l86 -24l37 12q292 0 371 -198 q49 -143 49 -222v-49h25l62 234q0 161 -223 321l-197 37h-236q-75 0 -135 -85zM245 1271q-34 0 -74 -371l11 -12v-13l-11 -12l11 -74l-49 -445l12 -12v-13l-12 -12l12 -124v-98q0 -50 186 -50q37 0 37 136h13l-13 12q0 198 136 198h25q46 -46 123 -259h13q105 0 160 74 l-86 296v25q160 211 160 408q-49 308 -210 308q0 22 -185 25h-198zM529 1110q148 -67 148 -222q-84 -334 -235 -334l-37 37v136l13 111l-13 13v12l13 136v62q16 49 111 49zM504 1023q-22 0 -37 -382l12 -13q62 0 99 148v173q0 74 -74 74zM801 468q61 -210 86 -210 q74 55 74 135q-59 186 -86 186q-74 -53 -74 -111zM442 245v-136q87 61 87 136q0 45 -37 74q-50 -12 -50 -74z" />
<glyph unicode="S" horiz-adv-x="834" d="M406 1463l42 13q266 51 289 -21q13 -257 -127 -413l-52 -51l187 -336q51 -158 -215 -568l-154 -83q-172 -55 -314 24l-3 9q-6 245 110 365l127 97l-6 20q-152 225 -175 295q-95 298 202 609zM289 1300q7 -23 164 19q46 -19 112 2q40 33 59 98l-4 10l-156 -4 q-189 -82 -175 -125zM184 814l174 -295l13 -41q11 -167 -105 -204l-112 -2q-45 -180 -33 -215q126 -24 207 -12q259 83 281 361l-19 96l-27 83l8 13l-182 281l-13 43q-26 80 26 132l30 10l106 22l9 151l-10 30l-137 2l-57 -30l-66 -10q-138 -44 -106 -373zM618 1190l10 4 q41 13 39 160l-10 -3q-40 -13 -39 -161zM432 995l-1 -67l7 -22q75 -81 193 -322l23 -107l31 10l-5 124l-40 123q-168 274 -208 261zM209 346l7 -20l54 6l10 3l29 55l-6 20l-36 1q-63 -48 -58 -65z" />
<glyph unicode="T" horiz-adv-x="1160" d="M874 1513l119 -11q64 -7 82 -263q-100 -243 -177 -305l43 -527q-89 -420 -214 -408l-174 3l-93 9q-43 4 -112 641q23 232 -80 276l-136 -14q-65 6 -68 275q118 310 217 301zM209 1296l13 -2q480 10 648 45l36 91l-40 3q-642 18 -654 -111zM919 1294l14 -135l13 -2 q32 -3 50 89l-15 122l-14 2q-26 2 -48 -76zM147 1208l-4 -40q-7 -173 37 -178l187 -4q43 -4 69 -530q60 -395 109 -400q202 3 206 48l-88 893l191 35l15 12l1 14q-5 174 -63 180q-291 28 -660 -30zM736 923l69 -678h13l54 142q-27 552 -80 557l-27 3z" />
<glyph unicode="U" horiz-adv-x="1288" d="M394 1548q275 0 275 -91q-26 -443 -79 -789l14 -13v-79h26l92 723l157 197h79l79 -13l14 13h13q111 -7 157 -53q-8 -118 -26 -118l26 -52l-66 -486l-13 -14q0 -61 -39 -131l13 -13q0 -240 -315 -526q-143 -79 -250 -79q-313 0 -407 263l-66 316l26 65l-13 66v39 q0 143 53 381l-13 14v12q0 185 210 356zM262 1364v-12l26 -27h144q119 18 119 118v14l-66 12h-91q-78 0 -132 -105zM827 1299l197 -26l92 131l-184 39q-118 -74 -118 -144h13zM551 1325q-79 -551 -79 -801q24 -105 53 -105h13l26 26v13l-39 171l65 696h-39zM1116 1299 l-39 -105v-40q0 -300 -145 -788v-14h26q70 72 171 723l13 171v53h-26zM157 852l13 -65l-13 -145v-27q0 -374 197 -486q104 -26 263 -26q171 0 289 421q79 179 79 656l-197 27l-26 -92l12 -14v-12l-105 -631q0 -39 -105 -106h-53q-94 0 -117 198l65 657q-13 52 -79 52h-132 q-48 0 -78 -367z" />
<glyph unicode="V" horiz-adv-x="1206" d="M257 1523l26 5q268 54 290 -61l-12 -2l15 -10l47 -243l26 -61q169 206 317 274q243 -101 265 -132q14 -73 -366 -696q14 -69 -263 -411q-90 -97 -205 -172q-170 72 -237 125q-109 1198 -54 1209q97 165 151 175zM177 1322q16 -36 110 -18l38 8q68 14 131 145 q-5 25 -69 13l-3 12q-180 -35 -207 -160zM465 1141l16 -10l12 -263l13 2q86 105 59 237l-28 75l-2 145l-20 36l-26 -5q-30 -6 -24 -217zM149 1065l16 -10l2 -13q6 -299 73 -835q7 -34 137 -92q229 291 558 934l-5 25l-151 89q-76 -15 -271 -438l-33 -33l-13 -2 q-25 -5 -33 32l-27 472q-14 67 -143 51l-89 -17q-39 -8 -8 -161zM838 1202q109 -71 170 -60l13 3l111 115q-89 88 -161 74q-128 -87 -133 -132zM960 921l2 -13l31 46l-13 -2zM702 485l3 -13l12 2q50 43 59 105l-13 -2z" />
<glyph unicode="W" horiz-adv-x="1738" d="M511 1600q52 5 98 -57l34 -340l13 1q140 227 296 347q299 -83 304 -141l-21 -307l26 3q205 166 260 171l13 2q218 -101 241 -161q-564 -872 -658 -952l-208 -178l-52 -6l-235 108l-2 14l12 146l-26 -2q-102 -130 -158 -135q-296 45 -303 116l-24 644l13 2l-15 11l-1 13 q4 490 95 500q60 164 168 174zM257 1363l1 -13l67 -7q144 14 167 175l-91 -8q-79 -8 -144 -147zM829 1327l1 -13q3 -36 136 -39l66 6q69 7 133 119q-90 70 -191 61q-93 -49 -145 -134zM518 1402l4 -449l15 -12l13 2l37 162l-40 260l-3 40zM203 577l23 -90l-7 -212 q8 -78 168 -88l27 2q23 2 279 504l27 3l28 -24l2 -13q-23 -437 -55 -508q5 -57 167 -89q27 3 257 342q26 3 220 313q30 3 89 167q-58 96 -132 133l-13 -1l-283 -346l-13 -1q-26 -2 -30 37l23 425l-2 26q-5 47 -194 87q-46 -40 -244 -474l-36 -30l-43 35l-8 79l-16 421 l-14 12l-183 -19q-65 -6 -37 -691zM1046 873l26 3q87 8 92 405l-26 -2q-84 -8 -92 -406zM1367 1103q88 -136 119 -146l27 3l157 147l-128 93l-65 -6zM1463 796l2 -26l58 85l-13 -2zM1069 241l1 -13l13 1q103 80 245 328l-1 13h-13zM606 380l13 2l35 42l-3 27z" />
<glyph unicode="X" horiz-adv-x="1117" d="M877 1551q31 0 169 -193l-193 -458q0 -46 169 -278v-25l-72 -289l-170 -229h-24q-165 185 -205 301h-24q-97 -116 -217 -350h-60q-182 199 -182 230q0 157 182 495l-182 277q30 224 170 422l59 60h37q60 -40 229 -277q72 30 217 242q73 72 97 72zM877 1454l-60 -157 q0 -47 84 -108l73 157q0 59 -97 108zM322 1394l-25 -109l194 -277q28 0 36 84h12q-36 94 -181 302h-36zM539 887h-12q-97 97 -217 302l-60 12l-97 -157l193 -314v-84l-193 -350v-24q0 -65 121 -157q51 46 229 362h24q32 -1 169 -242l72 -72q133 156 133 217l-193 302l-24 60 l193 363q-64 132 -109 132q-41 0 -96 -181q-114 -169 -133 -169zM780 802l-24 -72l145 -253h36l13 61v96q-80 133 -133 168h-37z" />
<glyph unicode="Y" horiz-adv-x="1182" d="M495 1530h12l130 -245l12 1q114 157 280 195l13 1q234 -101 237 -139q-338 -502 -330 -629q-42 -537 -156 -544l-118 -146q-320 39 -324 94q-10 163 63 639l-245 467q189 212 426 306zM390 1371l1 -25q83 -229 131 -260q61 38 57 106q-7 110 -116 234h-13 q-56 -29 -60 -55zM823 1359l2 -24l156 -67q95 38 109 83l-169 66q-100 -20 -98 -58zM159 1217l1 -26l217 -430l-65 -588q4 -68 206 -64q100 453 92 578q263 365 325 502q-68 110 -185 103l-234 -319l-13 -1l-172 332l-40 23q-113 -57 -132 -110zM627 205l13 1q114 7 133 515 l-26 -1q-79 -5 -120 -515z" />
<glyph unicode="Z" horiz-adv-x="1066" d="M437 1525l251 -31l103 20l13 2q113 -83 216 -86l16 -38q21 -250 -181 -486l-175 -249q1 -18 160 -51l77 18l15 -11l1 -13q-26 -328 -214 -566l-38 -16q-122 -10 -634 91l-7 77q-27 326 322 680l13 14l-2 13q-3 39 -214 60l-2 26q36 408 135 416q102 123 145 130z M323 1332l2 -25q194 -50 489 -64q112 58 105 139q-180 51 -475 65q-48 -5 -121 -115zM246 999q289 -21 293 -66q6 -70 -127 -194q-298 -339 -292 -416l-14 -145q368 -99 530 -86q50 61 48 200q-4 45 -294 80l-1 12q344 440 420 598l-2 183l-13 -2l-489 76q-76 -29 -59 -240z M916 1265l-26 -146l1 -13l25 1l40 148l-14 12zM503 434l185 -37q125 66 118 154l-158 12q-68 -6 -145 -129zM754 232l1 -12l13 1q72 83 62 201l-13 -2q-71 -88 -63 -188z" />
<glyph unicode="a" horiz-adv-x="1258" d="M586 1515q348 -16 409 -112q0 -86 124 -471l-12 -50q17 -2 87 -361l12 -49q-96 -348 -273 -348q-117 -50 -174 -50q-20 0 -74 187h-99q-211 -261 -249 -261q-185 78 -298 162l286 1155q195 198 261 198zM448 1341l138 -37l37 13l99 -26q92 0 137 124q0 23 -286 38 q-119 -70 -125 -112zM809 1192v-25q35 -201 149 -484l25 -124h-12l86 -261q45 0 87 149q-87 548 -211 894h-24q-100 -54 -100 -149zM113 236q0 -113 199 -162q29 0 87 237q49 24 137 24h50q186 0 186 -161l37 -25q174 29 174 62q-25 282 -174 757q-68 274 -112 274h-37 l-248 37q-88 0 -199 -633q-100 -323 -100 -410zM560 944h13q45 -16 112 -410v-37l-25 -25h-198l-26 25q71 447 124 447zM548 795l-37 -174l13 -12h12q42 30 62 99l-25 87h-25zM560 547l13 -13v-13l37 13v37h-24zM424 174h12q62 37 62 87h-36q-30 0 -38 -87z" />
<glyph unicode="b" horiz-adv-x="1121" d="M424 1514q90 13 438 -69q82 -63 101 -183l15 -102l-64 -260q116 -152 124 -200q41 -269 -232 -599q-96 -77 -205 -94l-11 -1q-479 26 -509 58l-3 20q-14 90 109 1133q-17 114 207 292zM294 1337q4 -24 180 -14l193 -33q188 -77 202 -167q8 -52 28 -48q25 43 14 190 q-77 165 -200 147q-198 52 -308 36q-33 -8 -109 -111zM254 1259q-51 -211 -104 -966q11 -73 -11 -199l10 1l424 -40q219 34 278 293l12 64l-17 39l4 42q-67 165 -102 194l-3 20q89 138 102 287l-8 51q-29 194 -273 219q-161 17 -312 -5zM458 1081l30 4q149 -14 162 -100 q0 -177 -95 -192q-134 -13 -139 21l-3 20q0 240 45 247zM479 948l4 -30l10 1q56 45 48 101l-12 9l-21 -3q-38 -23 -29 -78zM504 848l2 -10l20 3l1 -10q61 9 60 92q-56 -9 -83 -75zM819 697q77 -167 92 -257l-10 -11l2 -11l15 -29q84 131 65 260l-6 41q-8 49 -73 135l-31 -5 q-62 -75 -54 -123zM401 634l21 3q196 12 219 -144q-19 -180 -116 -195q-187 -4 -191 23q26 307 67 313zM412 427l11 -9l10 2q70 91 64 134l-5 31l-32 6q-48 -8 -48 -164zM453 360l23 -17l21 3q55 9 74 64l-5 30l-24 18l-20 -4q-58 -51 -69 -94z" />
<glyph unicode="c" horiz-adv-x="1140" d="M611 1504q155 -19 296 -127q94 -153 94 -190v-32q-42 -221 -126 -221l-190 -42q-84 137 -106 137h-10q-64 0 -64 -53q0 -345 64 -433l74 -84h10q53 225 138 306q274 -23 274 -74q0 -485 -433 -665h-21q-353 0 -443 317q-74 205 -74 390v32q0 510 337 707q64 32 180 32z M326 1292h11q139 53 211 53q151 -21 296 -127l52 -126h31l22 106q-93 243 -296 243l-95 10q-157 0 -232 -159zM147 818q20 -654 306 -718l158 -10h32q166 0 284 380v42q-20 21 -179 31q-94 -250 -137 -253h-74q-169 164 -169 401v32q0 369 211 369q35 0 149 -137 q136 18 136 53v11q-63 263 -274 263l-63 10q-342 0 -380 -432v-42zM431 786l-10 -84q38 -317 158 -359l42 31v22q-104 94 -158 274q-7 116 -32 116zM759 606v-10l74 -10h84q53 26 53 84l-63 21h-96q-52 -27 -52 -85z" />
<glyph unicode="d" horiz-adv-x="1236" d="M399 1515q116 -5 240 -45l34 14q131 -1 298 -110q212 -167 228 -497q-40 -397 -164 -550q-142 -178 -283 -217q-68 -83 -255 -92q-242 11 -398 48l49 1290q147 115 251 159zM316 1387l92 -30l55 14q127 7 286 -76q188 -132 193 -250h-10q38 -50 66 -222 q-56 -489 -122 -492l-62 -105h11q317 214 298 602q22 1 17 103q-78 357 -164 353q-91 131 -221 124q-1 20 -285 43q-156 -19 -154 -64zM161 407l12 -10l-10 -249q3 -61 240 -56q1 -22 102 -17q219 11 387 403l50 353q-81 391 -177 386q-118 119 -378 106l-125 16 q-73 -4 -69 -432zM498 1125q208 -80 217 -272q23 -451 -188 -540q1 -23 -77 -26l-34 -2q-28 -1 -36 43q65 504 52 749v10q9 35 66 38zM462 479l13 -33q107 5 98 547l-2 33l-24 22q-52 -3 -61 -364q-18 -1 -24 -205zM639 804l-9 -57l7 -146h12l2 170l-2 33h-10zM524 381 q45 17 64 60v11q-79 -4 -76 -72z" />
<glyph unicode="e" horiz-adv-x="989" d="M477 1531l56 -11h213q90 0 90 -157v-67l-56 -224q89 0 89 -179v-89l-44 -180q89 0 89 -112v-145q-73 -348 -179 -348h-123l-101 12l-112 -12h-201q-56 20 -56 336q-17 0 -22 123h10l-10 12v212l10 12l-22 112l12 100l-12 325q54 246 101 246l45 12h89q134 0 134 22z M231 1441q-45 -88 -45 -145v-23h45l460 34q44 86 44 134l-11 12h-11zM746 1273v-56h11l12 56h-23zM176 1139l10 -157l-10 -44l10 -292v-223q41 -336 68 -336h459q16 0 33 44l-11 124v56l-11 10v12l-191 -12h-44q-45 0 -45 191v34q0 28 45 33q235 0 235 34v111q0 59 -33 68 h-12l-224 -12l-22 68v134q0 45 258 67l-12 79v11l12 44q0 57 -79 57q-436 0 -436 -67v-34zM545 848l11 -11h11l34 22l44 -11q124 7 124 112v11l-12 11v12q-178 -31 -178 -56l-46 -90h12zM791 859l-11 -55v-56q26 0 33 78l-11 33h-11zM556 389l11 -12h12q223 0 223 146 l-11 11q-212 0 -212 -100q-23 0 -23 -45zM825 423l-34 -146l11 -68q26 0 56 168l-11 46h-22z" />
<glyph unicode="f" horiz-adv-x="928" d="M521 1533l266 13l35 -32l4 -78l14 -43q8 -171 -55 -248l2 -33q52 3 71 -86l5 -110q9 -179 -115 -363q-154 -51 -153 -74l1 -22l19 -144q-57 -281 -131 -285h-11v11l-11 -12l-11 -1l-11 11q-43 -25 -122 -29l-89 -4q-62 -3 -93 319q2 100 17 101l-64 397l7 67l-3 67 l-13 44l8 45l-11 10v11l10 12l-31 188q130 240 266 247zM185 1338l57 -8l298 48l1 -11l10 12h11l67 -8q33 2 85 93l-34 21l-234 -11q-183 -9 -250 -113l-11 -12v-11zM712 1287l3 -67l11 1q53 57 47 169l-12 10l-10 -1q-31 -1 -39 -112zM125 1201l20 -154l-12 -1l13 -32 l48 -522l-11 -12l1 -10l27 -88l-7 -101l44 -209l166 19l33 2l33 24l-54 398q111 73 275 81l21 45q-22 210 -78 207l-199 -43q-66 -3 -75 175l-2 45q-2 47 274 80q-1 178 14 179q-9 43 -80 40l-77 -15l-46 9l-318 -71zM465 873l77 4q211 10 204 155l-11 11l-145 -7 q-93 -5 -125 -163zM756 832l2 -45l24 -20h11l7 79l-5 100q-31 -2 -39 -114zM495 474l33 -210l21 23l-9 178l-23 21l-10 -12h-12z" />
<glyph unicode="g" horiz-adv-x="1205" d="M699 1523h22q109 -2 109 -21l12 11h10q142 0 142 -131l-12 -43l12 -87q-149 -230 -218 -230h-98q-186 -19 -186 -218l-11 -10v-12h22q0 51 175 196q447 -81 447 -131l10 -10q0 -149 -54 -327l11 -33q-90 -370 -294 -523q0 -23 -99 -32q-240 36 -392 174 q-219 253 -219 479l-10 153q0 155 163 490q202 305 458 305zM405 1327v-22l153 44l97 -10h77q69 0 131 87v10q0 32 -121 32h-87q-100 0 -250 -141zM819 1273q8 -131 33 -131q77 105 77 142v131q-110 -83 -110 -142zM678 1295h-99q-290 0 -435 -458l10 -12v-10l-21 -98 l11 -33l-11 -11v-11l21 -98l-10 -10q0 -283 315 -513l219 -64h32q117 0 185 414h11l-11 32l34 272l-306 77h-11q-87 0 -87 -197q185 -55 185 -98q-58 -196 -98 -196q-185 69 -240 217l-33 132q0 158 88 305v11h-22v22l22 21l44 -11q59 99 87 109q54 -2 54 -22l11 12h131 l22 22v153l-44 53zM612 825l196 -65l87 12l34 -34h32q51 25 76 77v22q0 22 -65 22l-273 65q-69 0 -87 -99zM961 542l11 -32h-11l11 -12l-77 -294l11 -10v-11l-11 -44h11q81 114 131 317l-11 10v11l55 251l-12 32h-10q-50 -11 -98 -218zM394 738v-97q58 -284 164 -284l10 -11 h22q22 5 44 55q0 46 -175 153q-32 184 -54 184h-11z" />
<glyph unicode="h" horiz-adv-x="1455" d="M1127 1483l204 -32q96 -16 67 -192l-39 -509l-33 -120l-29 -176q-33 -209 -234 -421l-208 4q-119 20 -138 92l17 108q41 258 -13 267l-72 -17l11 -15l-20 -122q-102 -235 -210 -273l-176 28q-190 31 -177 112l7 138l21 39l50 492l23 53l1 97q72 451 230 478q22 53 158 31 l38 -21l16 13l14 -3q176 -28 143 -232l-12 -165l-28 -92l10 -17l41 -6q23 79 41 77l1 181q225 214 296 203zM973 1299l50 -36q245 -40 262 70l2 13l-23 32l-177 27q-102 -35 -114 -106zM388 1379l171 -55l96 81l3 14q6 41 -129 63q-142 -14 -155 -101zM1317 1272l-58 -102 l-15 -179q-38 -202 -60 -199l12 -15l-30 -191l-10 -234l-28 -93l12 -2q48 -8 107 316l14 -2l-12 16l11 67l16 12l-12 16l5 27l16 12l-12 15l20 38l10 152l3 13l15 13q-18 62 7 221l11 67zM689 1344l-66 -143l-28 -176l35 -47l46 118l35 217zM264 1134l-87 -723l3 -71 l-25 -66q-13 -81 70 -94l135 -22l47 34l58 366q9 55 267 14l54 -8q81 -14 17 -421l65 -24l109 -18q42 2 56 89l57 450l27 79l2 97l56 269q16 96 -79 111l-109 18q-82 12 -95 -69l-21 -136l-17 -192l-35 -50l-39 20l-220 21l-45 63l28 177l-6 139l14 -2q15 95 -175 125 q-85 -9 -112 -176zM660 904l-5 -28l95 -15l32 23l5 28l-24 31l-40 6zM518 453l11 -15l-24 -66l-9 -55l23 -31l40 77l15 95l-22 31q-27 4 -34 -36z" />
<glyph unicode="i" horiz-adv-x="921" d="M568 1547q290 -65 290 -175q0 -187 -144 -857q0 -390 -262 -479l-28 -29h-45q-290 76 -290 101q84 1279 218 1279q212 160 261 160zM394 1358l145 -58l15 14h14l15 -14q144 70 145 101q-70 58 -174 58q-160 -71 -160 -101zM554 661l14 -15v-15l-87 -479h15q110 0 130 378 q146 563 146 740v30h-29q-108 -11 -189 -639zM336 1270q-44 -250 -101 -391l14 -15v-15q-59 -387 -59 -581v-131l160 -43h15q116 442 189 1104q-33 72 -146 72h-72z" />
<glyph unicode="j" horiz-adv-x="1296" d="M892 1489q329 0 329 -57v-157l-15 -15l15 -14q-43 -635 -172 -931q-131 -232 -415 -315h-129q-302 0 -444 401q113 316 358 316q39 -13 114 -159l15 -14h43q47 0 57 186l-14 15v14q54 616 157 616q0 43 101 114zM821 1303q0 -28 71 -28v-15q186 0 186 87l14 42l-43 29 h-86q-84 0 -142 -115zM1107 1246q-32 -500 -72 -702v-14h14q52 140 86 601l15 14l-15 58v43h-28zM749 1174l14 -43q-60 -744 -158 -744q-92 -58 -143 -58q-65 0 -172 101h-28q-93 -38 -101 -72q90 -286 330 -286l57 -15q185 0 329 244q130 223 130 787l13 57q-18 72 -199 72 zM362 487q46 -100 100 -100q89 29 100 71l-143 115h-14q-29 0 -43 -86zM204 515l14 -14h14l43 43v14h-28z" />
<glyph unicode="k" d="M351 1546q337 0 337 -104v-182h26q154 208 246 208q217 -114 233 -156v-13q0 -41 -181 -375q246 -268 246 -299v-26q-79 -183 -363 -479h-38l-156 169q-162 -260 -207 -260l-337 -51l-78 751l13 247v64l13 13l-13 13l13 194v52q200 234 246 234zM248 1338l117 -13h12 q149 0 169 130h-14l-142 13q-156 -57 -156 -130h14zM831 1274l142 -78q48 0 117 90v26q0 23 -130 78q-129 -47 -129 -116zM494 988l12 -12h26q79 130 79 194v155l-26 26q-69 0 -91 -363zM196 1260l-39 -284l13 -65l-13 -13v-13l13 -14l-26 -181l78 -609l12 -13h14 q99 0 220 39v13l-13 415l39 26h12l351 -337q90 0 194 207l-311 298l195 389v13l-143 77q-71 -12 -181 -246l-143 -168h-13l-39 25l13 66l-13 117l13 168v52q0 38 -233 38zM857 742q21 -68 233 -233h13l64 78v38q-152 194 -220 194q-90 0 -90 -77zM546 418v-129l-14 -65 l14 -13h39l26 116v39l-53 52h-12z" />
<glyph unicode="l" horiz-adv-x="1012" d="M514 1545q168 -9 163 -138l5 -169l-15 -12v-13l12 -14l-53 -295l-7 -155l-14 -13q-3 -51 166 -59l104 21q58 -28 62 -55l-3 -78q-19 -381 -233 -519l-169 -6q-465 23 -461 101l1 26q14 115 31 115l-11 14l8 180l13 13l-11 13l1 13q65 904 133 901q25 -2 28 50l-24 27 l14 13l12 -1l38 -15q3 52 210 55zM285 1362q0 -27 141 -47q69 -3 135 110v14l-24 26l-156 8q-21 0 -96 -111zM581 1320l-14 -38l-69 -618l26 -1l78 553l4 78zM222 1131l-13 -271l-39 -271l9 -78l-19 -128l9 -105l-18 -102q31 -41 307 -54l156 -8q77 -4 83 126l22 167l-13 14 l-259 13q-29 1 -35 66q35 556 66 554l-13 13l1 14l14 12l-13 13l5 104l14 12v13l-37 27l-181 10q-39 1 -46 -141zM529 507l13 -13l103 -6q106 -5 147 84v26l-140 33q-118 -21 -123 -124zM827 506l-32 -115l-3 -77l-14 -13v-14l11 -12l13 -1l62 191l-11 39z" />
<glyph unicode="m" horiz-adv-x="1674" d="M1124 1554q484 -24 478 -135l1 -249l-20 -123l-12 -497q-12 -232 -205 -515q-42 -21 -335 -37l-20 125l-28 2q-3 -46 -118 -131l-26 1q-235 12 -227 162l-161 -157l-55 3l-67 18l-84 -10l-124 6q-41 10 -36 112l12 234l58 868q7 133 237 305q425 -59 420 -160l37 -84 l41 -2q119 270 234 264zM1001 1285q54 -7 53 -31l42 12l261 -28q102 92 108 202l-331 17q-96 5 -132 -146zM314 1361l-2 -41l53 -31l207 -10q31 -2 76 120q-51 44 -123 47l-123 7q-26 1 -88 -92zM668 1246l-5 -83l70 -253h14q27 -2 79 203q-62 194 -99 227q-56 -20 -59 -94z M1419 1069l24 -56l-22 -165l-3 -331l-32 -82l13 -14l-1 -14l-34 -109l15 -14l27 -2q44 66 112 865l-11 42l16 55l-11 56q-54 3 -93 -231zM159 235l9 -123l13 -1l193 -25l41 13l9 179l9 441l14 13l28 -1q86 -80 218 -606q64 -59 108 -61q66 -3 195 585l16 40l14 14 q2 41 30 40l13 -1l40 -43l-15 -566q11 -56 52 -58q117 -6 169 46l-12 56l43 564l19 359q4 82 -134 89l-261 28q-55 3 -205 -474l-14 -13l-13 1l-143 449l-300 85q-68 3 -90 -424zM489 453l25 -56l-19 -95l8 -112l13 -1q56 20 60 94l-45 196l-13 1zM993 331l-19 -109l27 -1 l18 68l2 41z" />
<glyph unicode="n" horiz-adv-x="1318" d="M541 1514q231 0 231 -137l14 -13h13l164 136q273 -18 273 -96q0 -1091 -95 -1091q-103 -287 -151 -287h-272q-103 0 -137 191h-13l-137 -191q-341 30 -341 96v164q110 1051 164 1051q167 177 287 177zM363 1337q0 -23 82 -41l54 14l42 -14l95 122l-82 28h-27 q-87 0 -164 -109zM868 1310l122 -42q80 0 123 123l-136 27q-109 -32 -109 -108zM691 1364q-55 -58 -55 -110l82 -314h27v178l14 123q-34 123 -68 123zM1127 1310q-24 -27 -41 -314l14 -83l-27 -122v-109q0 -160 -27 -219l13 -14v-14l-13 -108l13 -14h14q49 0 81 983l-13 14 h-14zM200 518l13 -14v-13q-41 -204 -41 -342h14l164 -41h13q60 0 95 546l14 55l13 13h28q69 0 205 -600q81 -23 81 -41q178 0 178 109v82l-14 68q55 446 55 710v54q0 123 -177 123l-28 -27l14 -14v-327l-14 -14l14 -40q-17 -137 -55 -137q-38 32 -218 546l-204 40 q-92 0 -123 -600zM513 518l-28 -246l14 -14h14q55 82 55 123l-27 137h-28z" />
<glyph unicode="o" horiz-adv-x="1281" d="M623 1535q397 0 568 -394l23 -231l-12 -47v-81l-11 -12l11 -11v-11q-109 -476 -197 -476q-153 -231 -301 -231l-11 12l-12 -12h-150q-315 0 -417 521h-12v23h12l-12 139v58l35 255v12l-23 35v11q54 36 162 266q121 174 347 174zM369 1361l185 35q296 -56 393 -185 q128 -139 128 -417v-127l-11 -197q81 102 81 416v58l11 12q0 246 -163 382q-89 139 -370 139q-168 0 -254 -116zM229 1084l12 -71q-81 0 -81 -265q0 -364 197 -603q64 -58 266 -58q370 58 370 371l36 290q-42 348 -117 428q-132 162 -416 162q-130 0 -267 -254zM566 1095h34 q128 0 174 -232l-12 -12l12 -57v-278q-38 -208 -151 -208h-11q-142 0 -198 219v336q41 232 152 232zM600 817v-23l12 -46l-12 -47l12 -58h-12q31 -162 93 -162q20 25 35 162q-28 382 -93 382q-35 0 -35 -208zM461 840l12 -58v-220q23 -197 162 -197l34 35q-115 119 -115 243 l-12 186v162h-23q-31 0 -58 -151z" />
<glyph unicode="p" horiz-adv-x="1054" d="M398 1533q497 -78 497 -177q66 -55 66 -199l33 -65q0 -209 -253 -585q-166 -96 -166 -121q0 -152 -199 -353l-87 -11q-188 20 -188 88l-22 188l11 55l11 628q42 430 121 430q50 122 176 122zM255 1367v-11q519 -58 519 -154q99 -118 99 -265v-11h10q34 0 45 154 q0 296 -265 353l-165 33l-11 -10l-55 10h-44q-59 0 -133 -99zM156 948l11 -44l-11 -33l11 -44l-22 -486l11 -32l-11 -67v-44q0 -110 144 -110h10q77 0 77 342q238 52 321 121q132 144 132 397q-70 265 -144 265q0 48 -418 77q-89 0 -111 -342zM476 1092q176 0 176 -221v-22 q-23 -221 -198 -221h-44l-22 22q29 402 55 442h33zM487 1036l-22 -154v-66h22q18 77 33 77l-11 11v110zM498 706h22l44 43v34h-11q-55 -34 -55 -77zM443 386l-22 -166h33l44 133l-11 33h-44z" />
<glyph unicode="q" horiz-adv-x="1386" d="M599 1530h56q268 0 475 -289q44 -44 67 -199h-12l12 -10v-56l-12 -11l12 -33q0 -228 -33 -365q154 -106 154 -155q-136 -370 -232 -398q-168 99 -199 99q-129 -99 -199 -99l-12 10l-99 -21q-294 0 -376 210q-91 126 -133 443l11 10v11l-11 34h11l-11 11v33l33 277l-22 66 q55 0 143 221q116 211 377 211zM345 1364l166 33q305 -53 409 -177q144 -159 144 -443v-232q62 0 77 398q0 265 -188 421q-58 99 -354 110q-164 0 -254 -110zM201 1075l11 -66q-78 0 -78 -243v-67q0 -372 211 -586q54 -55 254 -55q125 0 243 110q0 26 55 34q93 -97 144 -111 q32 0 111 177q-4 37 -199 122v11q55 75 55 365l-11 44h11l-22 45l11 11q-33 361 -332 453l-210 11q-116 0 -254 -255zM544 1087h33q131 0 177 -232v-12l-11 -11l22 -99l-11 -11v-11l11 -34h-11l11 -11q0 -387 -166 -387q-154 0 -210 233v343q44 232 155 232zM577 799l11 -77 l-11 -11v-12q11 -232 99 -232l34 166l-22 111l10 33l-10 33h10q-46 199 -76 199h-12q-33 0 -33 -210zM444 766v-44q0 -376 144 -376q55 0 55 44q-99 106 -99 143q-22 94 -22 244v188l-23 22q-48 0 -55 -221zM1097 490l-44 -89q66 -55 144 -55l33 44v44q0 33 -100 56h-33z " />
<glyph unicode="r" horiz-adv-x="1213" d="M671 1516q242 0 410 -248l50 -137v-75q0 -117 -136 -348l-13 -62v-38l75 -236q-112 -253 -299 -312l-112 -24l-62 100h-12q-132 -162 -163 -162q-310 0 -310 62v174l-13 62l75 996q52 180 174 248h336zM273 1367v-25l86 -13h26l50 13l87 -24l37 11q294 0 373 -198 q50 -145 50 -225v-49h25l62 236q0 162 -224 323l-199 38h-237q-76 0 -136 -87zM260 1280q-33 0 -74 -374l12 -12v-12l-12 -13l12 -74l-50 -448l13 -13v-12l-13 -13l13 -124v-99q0 -50 187 -50q37 0 37 137h12l-12 12q0 199 137 199h24q47 -46 125 -261h12q107 0 162 74 l-87 299v25q161 212 161 411q-49 310 -211 310q0 22 -186 26h-200zM546 1118q150 -68 150 -224q-84 -335 -237 -335l-37 37v136l13 113l-13 12v12l13 137v63q17 49 111 49zM522 1031q-22 0 -37 -385l11 -13q63 0 100 149v174q0 75 -74 75zM821 471q61 -211 87 -211 q74 55 74 136q-59 187 -87 187q-74 -53 -74 -112zM459 247v-137q87 61 87 137q0 45 -37 75q-50 -13 -50 -75z" />
<glyph unicode="s" horiz-adv-x="911" d="M493 1482l43 11q281 38 301 -37q0 -268 -154 -424l-57 -50l178 -362q44 -165 -254 -579l-166 -78q-181 -49 -325 40l-3 11q6 256 134 373l138 96l-6 21q-147 242 -167 317q-84 315 242 624zM361 1318q7 -24 173 11q47 -22 117 -3q43 32 66 98l-3 11l-164 4 q-201 -75 -189 -121zM227 817l166 -317l12 -44q2 -174 -121 -206l-117 4q-56 -186 -46 -223q130 -32 216 -23q275 72 312 362l-15 100l-24 88l8 14l-173 302l-12 45q-23 84 33 136l33 9l111 18l17 156l-9 32l-142 9l-62 -28l-68 -6q-147 -40 -131 -384zM699 1187l11 2 q43 12 49 165l-11 -3q-43 -11 -49 -164zM494 993l-4 -71l6 -23q74 -89 185 -346l18 -112l32 9l2 129l-34 130q-161 295 -205 284zM229 328l6 -22l57 4l10 3l33 54l-6 22l-36 3q-69 -46 -64 -64z" />
<glyph unicode="t" horiz-adv-x="1164" d="M981 1388l114 -40q59 -23 12 -275q-157 -210 -246 -250l-91 -521q-189 -383 -308 -339l-167 45l-88 32q-41 14 52 647q80 219 -9 287l-135 21q-61 22 3 282q191 270 286 236zM286 1344l12 -5q465 -109 637 -119l57 79l-38 14q-616 177 -660 56zM971 1164l-20 -133l12 -5 q30 -11 70 74l16 121l-13 5q-24 10 -65 -62zM202 1275l-12 -37q-51 -166 -10 -183l180 -50q41 -15 -65 -529q-41 -396 5 -414q196 -48 211 -6l138 886l193 -13l17 8l6 12q38 169 -17 189q-273 100 -646 137zM702 851l-103 -671l12 -4l88 124q111 541 61 559l-24 9z" />
<glyph unicode="u" horiz-adv-x="1318" d="M407 1558q277 0 277 -92q-26 -446 -79 -794l13 -13v-80h26l93 728l158 199h80l79 -14l14 14h13q112 -7 158 -54q-7 -119 -26 -119l26 -52l-66 -490l-13 -13q0 -62 -40 -132l14 -13q0 -241 -317 -530q-144 -79 -252 -79q-315 0 -410 265l-66 317l26 66l-12 66v40 q0 144 52 384l-13 13v13q0 186 212 357zM274 1373v-13l26 -27h146q119 18 119 119v14l-66 13h-92q-79 0 -133 -106zM843 1307l198 -26l93 132l-185 39q-120 -74 -120 -145h14zM565 1333q-80 -554 -80 -806q25 -106 54 -106h13l26 26v14l-39 172l66 700h-40zM1134 1307 l-40 -106v-39q0 -303 -145 -794v-14h26q70 72 172 728l13 172v53h-26zM168 857l14 -66l-14 -145v-27q0 -377 199 -489q105 -27 265 -27q172 0 290 424q80 181 80 661l-199 27l-26 -93l13 -14v-12l-106 -635q0 -40 -106 -107h-53q-95 0 -118 199l66 662q-14 52 -80 52h-132 q-49 0 -79 -370z" />
<glyph unicode="v" horiz-adv-x="1214" d="M220 1464l24 10q258 97 300 -14l-13 -4l17 -8l87 -233l36 -57q134 232 270 325q258 -62 285 -89q27 -70 -250 -752q25 -66 -195 -451q-74 -111 -175 -205q-181 44 -256 85q-305 1174 -252 1194q70 181 122 199zM173 1252q22 -35 113 -1l37 14q65 25 105 167q-8 23 -71 0 l-4 12q-174 -64 -180 -192zM490 1118l17 -7l55 -260l12 4q69 118 20 246l-40 70l-26 143l-26 32l-25 -9q-28 -10 13 -219zM187 990l18 -7l4 -12q55 -296 209 -819q12 -33 151 -69q181 327 403 1020l-10 24l-164 65q-74 -28 -199 -481l-27 -38l-12 -4q-25 -10 -38 27 l-105 465q-24 64 -149 28l-87 -33q-37 -14 19 -161zM850 1239q121 -52 180 -31l12 5l91 132q-103 74 -172 48q-113 -107 -111 -154zM1017 979l5 -12l23 51l-13 -4zM832 504l5 -13l11 6q43 49 42 113l-12 -5z" />
<glyph unicode="w" horiz-adv-x="1813" d="M407 1577q52 15 110 -41l98 -343l13 4q102 259 241 411q322 -31 338 -89l35 -320l26 8q181 209 236 224l12 5q243 -63 278 -122q-419 -999 -501 -1099l-181 -221l-53 -15l-261 68l-5 12l-14 154l-27 -8q-81 -151 -137 -167q-312 -9 -332 63l-144 657l13 5l-17 8l-3 14 q-86 504 5 530q31 180 141 211zM189 1287l4 -14l70 7q144 41 139 210l-91 -26q-81 -23 -122 -177zM783 1355l3 -13q11 -37 148 -15l66 18q70 20 115 147q-105 56 -207 28q-86 -68 -125 -165zM449 1375l88 -460l17 -10l13 4l8 173l-88 261l-11 40zM278 470l40 -89l33 -219 q22 -78 189 -60l26 8q24 6 195 569l26 7l34 -19l4 -13q57 -452 37 -532q16 -57 188 -61q27 8 202 400q26 7 168 361q31 9 60 188q-77 88 -160 113l-14 -4l-226 -407l-13 -4q-26 -7 -38 33l-54 441l-8 26q-13 48 -215 53q-40 -49 -163 -531l-32 -37l-50 27l-23 80l-94 430 l-16 9l-186 -53q-64 -18 90 -716zM1089 929l27 7q87 25 20 434l-27 -7q-84 -24 -20 -434zM1377 1224q116 -124 150 -128l27 7l134 181l-149 72l-66 -18zM1533 926l7 -26l44 98l-14 -5zM1230 284l3 -14l14 5q90 100 191 381l-4 14l-13 -4zM729 341l12 4l29 51l-8 27z" />
<glyph unicode="x" horiz-adv-x="1131" d="M892 1537q30 0 167 -192l-192 -454q0 -45 168 -275v-24l-71 -287l-168 -227h-24q-163 184 -203 299h-24q-96 -115 -215 -347h-60q-179 197 -179 228q0 155 179 490l-179 275q29 222 167 418l59 59h37q59 -39 227 -275q71 30 215 240q71 72 96 72zM892 1441l-60 -156 q0 -47 84 -107l71 155q0 59 -95 108zM342 1381l-25 -107l192 -276q28 0 36 84h12q-36 93 -180 299h-35zM557 879h-12q-96 96 -215 299l-60 12l-96 -155l192 -312v-83l-192 -347v-23q0 -65 120 -156q50 46 227 359h24q31 -1 167 -240l72 -71q132 154 132 215l-192 299l-24 59 l192 360q-64 130 -108 130q-41 0 -95 -178q-113 -168 -132 -168zM796 795l-24 -72l144 -250h35l13 60v95q-80 132 -132 167h-36z" />
<glyph unicode="y" horiz-adv-x="1206" d="M521 1588h12l119 -261h13q126 155 300 183h13q236 -118 236 -157q-380 -498 -380 -629q-78 -550 -196 -550l-131 -144q-327 61 -327 118q0 168 105 655l-223 497q208 206 459 288zM402 1431v-26q71 -242 119 -275q65 34 65 105q0 113 -105 249h-13q-60 -26 -66 -53z M848 1392v-27l157 -78q101 33 118 78l-170 79q-105 -13 -105 -52zM154 1287v-26l196 -458l-105 -602q0 -71 210 -79q131 461 131 589q295 360 367 498q-63 118 -184 118l-262 -315h-13l-157 353l-39 27q-120 -51 -144 -105zM573 213h13q118 0 170 524h-26q-82 0 -157 -524z " />
<glyph unicode="z" horiz-adv-x="1169" d="M448 1584l262 -30l106 24l14 1q119 -86 225 -86l18 -41q24 -259 -183 -506l-179 -261q1 -19 167 -52l80 21l15 -12l2 -14q-23 -342 -216 -592l-40 -16q-126 -12 -660 87l-8 81q-32 338 327 709l12 16l-1 13q-4 40 -224 60l-2 27q33 424 136 434q105 129 149 137z M332 1382l3 -26q202 -49 508 -61q116 62 108 146q-188 50 -495 62q-50 -5 -124 -121zM256 1035q301 -18 305 -66q7 -73 -130 -203q-306 -356 -298 -436l-13 -150q383 -99 551 -84q53 64 48 209q-4 47 -307 80l-1 12q352 462 430 627l-4 189l-14 -1l-509 73q-79 -32 -58 -250 zM950 1319l-27 -153l2 -13l27 2l39 154l-15 12zM529 450l194 -36q129 70 120 161l-163 12q-73 -7 -151 -137zM793 243l1 -12l14 1q73 87 62 209l-14 -1q-72 -92 -63 -197z" />
<glyph unicode="{" horiz-adv-x="772" d="M512 1704q34 0 68 -125q-68 -242 -148 -329v-22l45 -194v-101q159 -129 159 -148l12 -45v-23l-35 -159q0 -91 114 -227v-12q-53 -339 -114 -339q-260 105 -260 272l-23 22l12 68q0 239 -182 239q-91 0 -91 193l103 249l-12 216v23q0 326 317 442h35zM250 1443h12 q170 73 170 159v11h-23q-107 -49 -159 -170zM455 1500l11 -34l46 68l-11 34zM228 1250l34 -250h-12l12 -11v-45q0 -193 -125 -193v-46q0 -79 125 -79q136 -108 136 -181l-11 -57q32 -318 215 -318l23 34v57q-124 70 -124 192l22 171q0 153 -204 205v22l57 136v23l-46 193 l12 11l-12 56q0 87 102 205v23l-34 34h-45q-125 -97 -125 -182zM432 853l-23 -46v-45q51 0 159 -136l23 68q0 111 -114 159h-45zM103 570l11 -12v-11l-11 -12h-11l-12 12v11l12 12h11zM557 433q0 -175 79 -215q35 11 35 68q0 30 -69 102l-22 45h-23zM376 82h22l23 -23 l-23 -24l-22 24v23z" />
<glyph unicode="}" horiz-adv-x="684" d="M203 1643l11 -1q315 -89 298 -332l-21 -148q-3 -46 109 -115l-18 -267q-82 -61 -93 -110q19 -22 14 -259q-19 -281 -241 -390l-23 -20q-16 1 -85 167l6 85l13 42l-10 11q6 77 111 197q-20 23 -13 118l-11 1l39 254q-35 2 -45 121l31 137q9 135 -159 193q-42 3 -36 88 l2 32q70 199 121 196zM209 1578l-36 -51q228 -120 265 -201l10 -1l1 11q11 148 -187 238zM157 1453l-10 -10l-2 -21q-5 -60 129 -138q50 -53 42 -163l-10 -150q-3 -46 77 -133l-4 -44l-72 -123l23 -130l-12 -10l-1 -11l17 -76l-11 -10l-1 -10l8 -33q-5 -69 -112 -227l-1 -11 q21 -66 38 -67l22 -2q132 66 146 247l-24 280q7 96 108 175l14 42l2 32q6 73 -100 93l-48 78l32 169q15 199 -250 253zM442 1079l-1 -10q-5 -85 80 -91l10 -1l3 32q1 22 -42 24l-18 44zM254 365l-12 -10l-4 -65q17 -1 36 62l-10 12z" />
<glyph unicode="&#x2000;" horiz-adv-x="852" />
<glyph unicode="&#x2001;" horiz-adv-x="1704" />
<glyph unicode="&#x2002;" horiz-adv-x="852" />
<glyph unicode="&#x2003;" horiz-adv-x="1704" />
<glyph unicode="&#x2004;" horiz-adv-x="568" />
<glyph unicode="&#x2005;" horiz-adv-x="426" />
<glyph unicode="&#x2006;" horiz-adv-x="284" />
<glyph unicode="&#x2007;" horiz-adv-x="284" />
<glyph unicode="&#x2008;" horiz-adv-x="213" />
<glyph unicode="&#x2009;" horiz-adv-x="340" />
<glyph unicode="&#x200a;" horiz-adv-x="94" />
<glyph unicode="&#x2010;" d="M1073 591q-16 -94 -962 -5q-18 3 -39 216l5 31l25 17q97 174 382 129q507 24 644 3q81 -13 93 -225q-6 -35 -148 -166zM1155 757q13 74 -21 130q-23 3 -92 -91l9 -12l-2 -10l-12 -9l25 -109q22 -4 93 101zM1061 909l4 20l-22 3q-129 21 -559 -17q-279 30 -292 -48l-2 -10 l361 6l11 -2l9 -12q469 -15 490 60zM999 676q14 80 -35 111q-493 26 -830 -5l-2 -10l13 -118l95 -15q142 -23 432 -26l11 -2l9 -12q111 25 299 26z" />
<glyph unicode="&#x2011;" d="M1073 591q-16 -94 -962 -5q-18 3 -39 216l5 31l25 17q97 174 382 129q507 24 644 3q81 -13 93 -225q-6 -35 -148 -166zM1155 757q13 74 -21 130q-23 3 -92 -91l9 -12l-2 -10l-12 -9l25 -109q22 -4 93 101zM1061 909l4 20l-22 3q-129 21 -559 -17q-279 30 -292 -48l-2 -10 l361 6l11 -2l9 -12q469 -15 490 60zM999 676q14 80 -35 111q-493 26 -830 -5l-2 -10l13 -118l95 -15q142 -23 432 -26l11 -2l9 -12q111 25 299 26z" />
<glyph unicode="&#x2013;" horiz-adv-x="1024" d="M204 512v204h616v-204h-616z" />
<glyph unicode="&#x2014;" horiz-adv-x="2048" d="M204 512v204h1640v-204h-1640z" />
<glyph unicode="&#x2026;" horiz-adv-x="1842" d="M1711 783q52 -46 56 -93l1 -12l-7 -50l13 -12q14 -179 -119 -368q-75 -31 -231 -44q-98 -8 -113 189l-10 110q79 242 189 251l99 8zM1416 599l1 -12l87 -5l62 6q70 48 64 115l-85 -8q-100 -8 -129 -96zM1677 596l9 -110l12 1l4 86l-1 26zM1388 511l8 -99l17 -73l-8 -49 l38 -23l87 7q72 6 87 132l-12 11l-1 12l6 75l-40 34l-61 -5zM1097 783q52 -46 56 -93l1 -12l-7 -50l13 -12q14 -179 -119 -368q-75 -31 -231 -44q-98 -8 -113 189l-10 110q79 242 189 251l99 8zM802 599l1 -12l87 -5l62 6q70 48 64 115l-85 -8q-100 -8 -129 -96zM1063 596 l9 -110l12 1l4 86l-1 26zM774 511l8 -99l17 -73l-8 -49l38 -23l87 7q72 6 87 132l-12 11l-1 12l6 75l-40 34l-61 -5zM483 783q52 -46 56 -93l1 -12l-7 -50l13 -12q14 -179 -119 -368q-75 -31 -231 -44q-98 -8 -113 189l-10 110q79 242 189 251l99 8zM188 599l1 -12l87 -5 l62 6q70 48 64 115l-85 -8q-100 -8 -129 -96zM449 596l9 -110l12 1l4 86l-1 26zM160 511l8 -99l17 -73l-8 -49l38 -23l87 7q72 6 87 132l-12 11l-1 12l6 75l-40 34l-61 -5z" />
<glyph unicode="&#x202f;" horiz-adv-x="340" />
<glyph unicode="&#x205f;" horiz-adv-x="426" />
<glyph unicode="&#x20ac;" horiz-adv-x="1551" d="M930 1648h56q166 0 373 -181q68 -136 102 -272q-45 -90 -124 -90h-23q-173 169 -238 169h-102l-89 -22v-34l191 -34l46 11q84 0 124 -147h11l23 23l-11 -34l11 -91q-67 -105 -67 -158l22 -67l-22 -68h10q124 0 181 -316q-42 -71 -293 -249l-79 -23q-359 56 -498 181 q-123 82 -237 384q-37 23 -148 23l-56 203q0 73 102 238q23 192 147 192q91 0 169 158q106 137 249 170q91 34 170 34zM477 1264l11 -80h12q186 306 486 306q317 -45 317 -125h34v11q0 161 -384 216h-12q-279 0 -464 -318v-10zM477 1037l-101 11q-52 -18 -79 -67 q0 -26 124 -46l11 -10v-35q0 -61 -56 -90l-113 11l-45 -90q226 -30 226 -68q0 -168 158 -362q63 -89 395 -158q183 0 328 204l12 33l-45 34h-23q-128 -136 -237 -136h-68q-214 0 -374 306l-11 45q23 67 46 67h67l396 -56q46 16 68 56v12q0 34 -520 90l-11 35q0 84 56 112 l475 -56q45 11 45 67v12q-520 56 -520 90q0 124 249 272l102 23q136 0 282 -170l11 -11h12q29 0 56 56q-144 214 -373 214q-316 -40 -316 -112q-65 0 -193 -272l-11 -11h-23zM330 1218v-68l46 -45l56 11v23q0 61 -45 79h-57zM771 1094v-11l430 -57q0 113 -204 113l-11 11 h-12l-10 -11l-125 23q-39 -10 -68 -68zM263 1139v-79q16 0 34 45l-12 34h-22zM172 902l-11 -57l11 -34l23 23v45zM297 890v-23h56v23h-56zM704 845q275 -57 418 -57v12q0 23 -283 56l-34 11v12q-101 -12 -101 -34zM658 596v-22q76 -125 204 -125h11q116 0 238 113 q-57 23 -396 57h-34zM816 370l137 -45q212 0 293 158q-11 57 -45 57q-225 -159 -385 -159v-11z" />
<glyph unicode="&#x2122;" horiz-adv-x="2767" d="M2198 1567q476 0 476 -109l13 -244l-13 -122l13 -488q0 -229 -176 -515q-40 -24 -326 -54l-27 122h-27q0 -45 -109 -136h-27q-229 0 -229 150l-150 -163h-54l-68 13l-81 -13h-123q-40 8 -40 109v230l13 854q0 130 218 311q419 -36 419 -135l42 -81h40q103 271 216 271z M2091 1296q54 -3 54 -27l40 13l258 -13q95 94 95 203h-325q-95 0 -122 -149v-27zM1413 1336v-40l53 -27h204q31 0 68 121q-52 42 -122 42h-122q-25 0 -81 -96zM1766 1241v-81l80 -244h14q27 0 68 204q-71 186 -109 216q-53 -22 -53 -95zM2511 1106l27 -54l-14 -163l14 -325 l-27 -82l13 -13v-14l-27 -108l14 -14h27q40 67 67 854l-13 41l13 54l-13 54q-54 0 -81 -230zM1317 224l15 -121h13l190 -14l40 14v176l-13 434l13 14h27q89 -74 244 -583q66 -55 109 -55q66 0 163 583l13 41l14 14q0 40 26 40h14l41 -40l14 -556q13 -54 54 -54q114 0 162 54 l-13 53l13 556v353q0 81 -135 81l-257 14q-55 0 -177 -475l-14 -13h-13l-163 434l-298 67q-67 0 -67 -420zM1630 455l27 -54l-14 -95l14 -108h13q54 21 54 95l-54 189h-13zM2131 360l-13 -108h27l13 68v40h-27zM874 1513l119 -11q64 -7 82 -263q-100 -243 -177 -305l43 -527 q-89 -420 -214 -408l-174 3l-93 9q-43 4 -112 641q23 232 -80 276l-136 -14q-65 6 -68 275q118 310 217 301zM209 1296l13 -2q480 10 648 45l36 91l-40 3q-642 18 -654 -111zM919 1294l14 -135l13 -2q32 -3 50 89l-15 122l-14 2q-26 2 -48 -76zM147 1208l-4 -40 q-7 -173 37 -178l187 -4q43 -4 69 -530q60 -395 109 -400q202 3 206 48l-88 893l191 35l15 12l1 14q-5 174 -63 180q-291 28 -660 -30zM736 923l69 -678h13l54 142q-27 552 -80 557l-27 3z" />
</font>
</defs>
</svg>
